<svg xmlns="http://www.w3.org/2000/svg" width="4000" height="4000" viewBox="0 0 4000 4000" version="1.1"><path d="M 1982.250 784.631 C 1983.912 785.121, 1984 801.219, 1984 1104.533 L 1984 1423.919 1975.750 1424.256 L 1967.500 1424.593 1976.252 1424.796 L 1985.003 1425 1984.752 1104.764 C 1984.501 785.355, 1984.495 784.527, 1982.500 784.321 C 1980.946 784.161, 1980.890 784.230, 1982.250 784.631 M 2614.003 972.750 C 2607.674 984.286, 2586.085 1022.062, 2584.998 1023.500 C 2584.582 1024.050, 2580.438 1031.250, 2575.788 1039.500 C 2571.139 1047.750, 2563.500 1061.025, 2558.813 1069 C 2554.127 1076.975, 2545.453 1092.050, 2539.537 1102.500 C 2522.882 1131.922, 2520.075 1136.806, 2513.961 1147 C 2510.826 1152.225, 2502.747 1166.175, 2496.006 1178 C 2489.266 1189.825, 2480.725 1204.675, 2477.027 1211 C 2473.329 1217.325, 2464.314 1232.850, 2456.993 1245.500 C 2449.672 1258.150, 2437.964 1278.175, 2430.975 1290 C 2423.986 1301.825, 2414.539 1318.025, 2409.981 1326 C 2405.424 1333.975, 2396.514 1349.275, 2390.183 1360 C 2383.851 1370.725, 2375.986 1384.225, 2372.704 1390 C 2369.422 1395.775, 2361.223 1409.725, 2354.484 1421 C 2347.746 1432.275, 2339.988 1445.550, 2337.244 1450.500 C 2334.501 1455.450, 2326.099 1470.475, 2318.574 1483.889 C 2311.049 1497.303, 2305.120 1508.869, 2305.397 1509.592 C 2305.674 1510.315, 2307.836 1512.165, 2310.201 1513.703 C 2327.362 1524.867, 2363.274 1551.656, 2377.500 1563.906 C 2421.212 1601.546, 2454.956 1640.220, 2485.997 1688.250 C 2490.529 1695.263, 2494.756 1701, 2495.390 1701 C 2496.025 1701, 2502.609 1697.364, 2510.022 1692.921 C 2523.846 1684.634, 2579.010 1652.594, 2596 1642.984 C 2601.225 1640.028, 2610 1634.843, 2615.500 1631.461 C 2621 1628.079, 2635.175 1619.759, 2647 1612.974 C 2658.825 1606.188, 2673.225 1597.730, 2679 1594.179 C 2694.998 1584.342, 2706.158 1578, 2707.469 1578 C 2708.879 1578, 2712.273 1581.576, 2713.956 1584.836 C 2714.619 1586.120, 2715.400 1586.934, 2715.690 1586.643 C 2715.981 1586.353, 2715.269 1584.782, 2714.109 1583.153 C 2712.949 1581.524, 2712 1579.746, 2712 1579.203 C 2712 1578.659, 2711.400 1577.984, 2710.667 1577.702 C 2709.933 1577.421, 2706.242 1572.535, 2702.464 1566.845 C 2698.685 1561.155, 2695.010 1555.905, 2694.297 1555.179 C 2693.584 1554.452, 2693 1553.500, 2693 1553.064 C 2693 1552.628, 2691.632 1550.748, 2689.960 1548.886 C 2688.288 1547.023, 2685.713 1543.475, 2684.238 1541 C 2682.763 1538.525, 2681.196 1536.050, 2680.756 1535.500 C 2680.315 1534.950, 2676.393 1529.325, 2672.041 1523 C 2667.689 1516.675, 2660.082 1505.875, 2655.138 1499 C 2650.194 1492.125, 2644.567 1484.250, 2642.634 1481.500 C 2640.700 1478.750, 2637.219 1473.800, 2634.897 1470.500 C 2632.575 1467.200, 2627.281 1459.550, 2623.133 1453.500 C 2618.986 1447.450, 2615.207 1442.050, 2614.737 1441.500 C 2613.960 1440.592, 2612.272 1438.048, 2608.764 1432.500 C 2608.069 1431.400, 2607.275 1430.275, 2607 1430 C 2605.643 1428.643, 2599.891 1420.795, 2596.007 1415 C 2593.611 1411.425, 2591.346 1408.275, 2590.975 1408 C 2589.754 1407.096, 2587.569 1402.521, 2587.871 1401.500 C 2588.034 1400.950, 2587.851 1400.816, 2587.464 1401.202 C 2586.586 1402.081, 2585.911 1401.357, 2578.420 1391.500 C 2570.627 1381.246, 2564 1371.399, 2564 1370.074 C 2564 1368.649, 2568.469 1367.650, 2571.471 1368.403 C 2572.830 1368.745, 2605.343 1369.687, 2643.721 1370.498 C 2711.815 1371.936, 2801.792 1373.935, 2890.500 1375.980 C 2914.700 1376.538, 2939.225 1377.198, 2945 1377.445 C 2950.775 1377.693, 2978.993 1378.459, 3007.706 1379.148 L 3059.912 1380.401 3056.389 1384.700 C 3054.452 1387.065, 3053.221 1389, 3053.656 1389 C 3054.090 1389, 3053.437 1389.706, 3052.206 1390.568 C 3050.956 1391.444, 3050.266 1392.659, 3050.644 1393.318 C 3051.016 1393.968, 3050.970 1394.184, 3050.541 1393.798 C 3049.482 1392.843, 3047.687 1394.836, 3046.092 1398.737 C 3045.364 1400.518, 3044.322 1401.699, 3043.777 1401.362 C 3043.170 1400.987, 3043.046 1401.570, 3043.458 1402.868 C 3043.947 1404.410, 3043.764 1404.847, 3042.785 1404.471 C 3041.907 1404.134, 3041.369 1404.816, 3041.235 1406.433 C 3040.913 1410.318, 3040.590 1411.356, 3039.250 1412.798 C 3038.563 1413.538, 3037.994 1414.898, 3037.986 1415.821 C 3037.979 1416.745, 3037.732 1418.400, 3037.438 1419.500 C 3037.145 1420.600, 3037.626 1422.400, 3038.507 1423.500 C 3040.059 1425.436, 3040.074 1425.425, 3038.963 1423.143 C 3037.972 1421.109, 3038.231 1420.207, 3040.845 1416.567 C 3042.511 1414.247, 3046.460 1407.432, 3049.620 1401.424 C 3052.780 1395.416, 3056.838 1388.286, 3058.637 1385.581 C 3060.437 1382.875, 3061.678 1380.288, 3061.395 1379.831 C 3061.113 1379.374, 3053.550 1379, 3044.588 1379 C 3035.626 1379, 3025.530 1378.711, 3022.153 1378.358 L 3016.013 1377.716 3006.332 1361.108 C 3001.007 1351.974, 2993.885 1340.225, 2990.505 1335 C 2987.125 1329.775, 2980.160 1318.750, 2975.027 1310.500 C 2960.178 1286.636, 2954.666 1278.759, 2928.401 1243.866 C 2912.809 1223.152, 2886.859 1191.342, 2872.629 1175.500 C 2852.342 1152.914, 2812.046 1111.363, 2799 1099.577 C 2765.239 1069.076, 2730.446 1039.834, 2705.316 1020.838 C 2676.189 998.821, 2623.848 963, 2620.803 963 C 2619.999 963, 2616.966 967.347, 2614.003 972.750 M 2627.615 1401.528 C 2625.733 1403.410, 2625.602 1403.136, 2633.046 1413 C 2636.159 1417.125, 2640.265 1422.750, 2642.172 1425.500 C 2644.078 1428.250, 2648.082 1434.025, 2651.069 1438.333 C 2654.056 1442.641, 2658.525 1449.011, 2661 1452.488 C 2663.475 1455.965, 2670 1465.189, 2675.500 1472.986 C 2681 1480.782, 2689.929 1493.312, 2695.343 1500.831 C 2705.422 1514.828, 2730.452 1552.179, 2739.351 1566.500 C 2745.016 1575.616, 2752.312 1590.004, 2756.847 1601 C 2761.588 1612.499, 2779.097 1658.935, 2785.501 1677 C 2788.913 1686.623, 2794.088 1700.841, 2795.510 1704.500 C 2795.937 1705.600, 2797.617 1710.100, 2799.242 1714.500 C 2800.867 1718.900, 2804.348 1728.125, 2806.979 1735 C 2809.610 1741.875, 2812.077 1748.967, 2812.463 1750.760 C 2813.245 1754.401, 2815.391 1757, 2817.613 1757 C 2818.454 1757, 2820.309 1754.268, 2821.948 1750.617 C 2826.561 1740.334, 2834.072 1727.926, 2835.244 1728.651 C 2835.837 1729.017, 2836.019 1728.840, 2835.655 1728.251 C 2834.939 1727.092, 2852.511 1692.744, 2869.547 1662 C 2875.490 1651.275, 2883.185 1636.975, 2886.646 1630.221 C 2890.107 1623.468, 2898.526 1607.943, 2905.354 1595.721 C 2917.086 1574.724, 2926.556 1557.319, 2936.761 1538 C 2943.813 1524.651, 2951.885 1510.257, 2957.513 1501 C 2960.355 1496.325, 2965.506 1487.100, 2968.961 1480.500 C 2972.415 1473.900, 2979.839 1460.400, 2985.459 1450.500 C 2991.079 1440.600, 2997.626 1428.808, 3000.007 1424.295 C 3002.389 1419.782, 3004.599 1416.251, 3004.919 1416.448 C 3005.238 1416.645, 3005.623 1415.050, 3005.774 1412.903 C 3005.982 1409.946, 3005.677 1409, 3004.517 1409 C 2993.331 1409, 2938.910 1407.912, 2931 1407.531 C 2925.225 1407.252, 2904.975 1406.785, 2886 1406.493 C 2852.322 1405.974, 2831.221 1405.406, 2812 1404.502 C 2806.775 1404.256, 2784.725 1403.801, 2763 1403.491 C 2741.275 1403.182, 2721.475 1402.734, 2719 1402.496 C 2716.525 1402.258, 2696.500 1401.800, 2674.500 1401.479 C 2652.500 1401.157, 2633.318 1400.669, 2631.874 1400.395 C 2630.222 1400.081, 2628.641 1400.501, 2627.615 1401.528 M 834.415 2016.362 C 834.127 2017.111, 834.056 2020.374, 834.257 2023.612 L 834.622 2029.500 834.811 2022.753 L 835 2016.005 1017.750 2015.750 L 1200.500 2015.495 1017.719 2015.247 C 864.234 2015.040, 834.853 2015.218, 834.415 2016.362 M 1288.250 2015.750 C 1310.662 2015.900, 1347.338 2015.900, 1369.750 2015.750 C 1392.162 2015.600, 1373.825 2015.477, 1329 2015.477 C 1284.175 2015.477, 1265.838 2015.600, 1288.250 2015.750 M 2879.677 2015.749 C 3107.336 2015.951, 3165.940 2016.259, 3166.273 2017.252 C 3166.513 2017.966, 3166.646 2017.859, 3166.583 2017 C 3166.485 2015.670, 3133.924 2015.500, 2879.986 2015.497 L 2593.500 2015.495 2879.677 2015.749 M 1982.975 2578.658 C 1983.671 2579.004, 1984 2669.061, 1984 2859.536 L 1984 3139.905 1977.750 3140.287 L 1971.500 3140.669 1978 3140.584 L 1984.500 3140.500 1984.500 2859.583 C 1984.500 2632.714, 1984.255 2578.617, 1983.225 2578.408 C 1982.524 2578.266, 1982.411 2578.379, 1982.975 2578.658 M 2801 2812.296 C 2794.125 2819.048, 2784.900 2827.868, 2780.500 2831.898 L 2772.500 2839.223 2780 2832.877 C 2787.582 2826.461, 2814.923 2800.047, 2814 2800.030 C 2813.725 2800.025, 2807.875 2805.545, 2801 2812.296 M 2016.434 2876.500 C 2016.433 2890.250, 2016.574 2896.014, 2016.747 2889.308 C 2016.919 2882.603, 2016.920 2871.353, 2016.748 2864.308 C 2016.576 2857.264, 2016.434 2862.750, 2016.434 2876.500" stroke="none" fill="#2576e9" fill-rule="evenodd"/><path d="M 1950.500 785.066 C 1937.300 785.463, 1922.225 786.283, 1917 786.887 C 1911.775 787.492, 1902.100 788.447, 1895.500 789.011 C 1869.947 791.193, 1833.644 796.115, 1803.500 801.486 C 1756.585 809.844, 1752.773 810.645, 1715.993 819.881 C 1691.375 826.063, 1688.378 826.921, 1652 838.214 C 1616.598 849.204, 1598.338 855.718, 1554 873.177 C 1539.085 879.049, 1506.679 894.098, 1482 906.612 C 1452.851 921.392, 1411.065 944.668, 1410.354 946.521 C 1410.120 947.129, 1412.917 952.548, 1416.568 958.563 C 1420.220 964.578, 1424.345 971.750, 1425.736 974.500 C 1428.556 980.077, 1440.288 1000.481, 1449.023 1015 C 1452.166 1020.225, 1460.446 1034.563, 1467.423 1046.861 C 1474.401 1059.160, 1481.840 1071.985, 1483.954 1075.361 C 1486.069 1078.738, 1489.803 1085.100, 1492.253 1089.500 C 1494.703 1093.900, 1499.534 1102.450, 1502.989 1108.500 C 1506.445 1114.550, 1513.120 1126.250, 1517.823 1134.500 C 1522.526 1142.750, 1529.591 1154.900, 1533.523 1161.500 C 1549.486 1188.292, 1564.079 1213.186, 1570.747 1225 C 1585.797 1251.667, 1590.137 1259.289, 1603.482 1282.500 C 1611.071 1295.700, 1620.431 1311.675, 1624.282 1318 C 1628.133 1324.325, 1636.326 1338.275, 1642.487 1349 C 1657.886 1375.803, 1671.973 1400.218, 1680.280 1414.500 C 1684.119 1421.100, 1691.187 1433.250, 1695.986 1441.500 C 1700.786 1449.750, 1706.787 1459.974, 1709.322 1464.221 C 1711.857 1468.468, 1716.462 1476.680, 1719.554 1482.471 C 1722.647 1488.262, 1725.788 1493, 1726.535 1493 C 1727.282 1493, 1730.713 1491.347, 1734.161 1489.327 C 1754.710 1477.283, 1802.801 1456.778, 1829.660 1448.608 C 1845.655 1443.743, 1880.219 1435.145, 1894 1432.604 C 1919.396 1427.922, 1956.693 1424.170, 1979.250 1424.030 L 1984 1424 1984 1104.617 L 1984 785.233 1981.750 784.630 C 1980.513 784.299, 1978.375 784.098, 1977 784.185 C 1975.625 784.272, 1963.700 784.668, 1950.500 785.066 M 2016.538 784.795 C 2016.242 785.091, 2016 928.962, 2016 1104.508 L 2016 1423.684 2034.750 1424.335 C 2088.175 1426.192, 2144.382 1437.984, 2201 1459.213 C 2227.634 1469.199, 2250.378 1479.330, 2263.569 1487.082 C 2269.107 1490.337, 2274.148 1493, 2274.772 1493 C 2275.396 1493, 2276.809 1490.960, 2277.912 1488.466 C 2279.015 1485.973, 2283.475 1477.986, 2287.823 1470.716 C 2292.171 1463.447, 2302.466 1445.800, 2310.700 1431.500 C 2318.934 1417.200, 2331.240 1395.825, 2338.046 1384 C 2344.852 1372.175, 2353.978 1356.650, 2358.325 1349.500 C 2368.779 1332.308, 2376.583 1318.976, 2395.204 1286.500 C 2418.987 1245.022, 2429.455 1226.856, 2439 1210.500 C 2443.815 1202.250, 2451.924 1188.300, 2457.020 1179.500 C 2468.186 1160.221, 2476.012 1146.817, 2491.176 1121 C 2497.475 1110.275, 2512.227 1084.625, 2523.959 1064 C 2535.690 1043.375, 2551.223 1016.375, 2558.477 1004 C 2565.731 991.625, 2573.386 978.350, 2575.490 974.500 C 2577.593 970.650, 2582.168 962.929, 2585.657 957.341 C 2589.146 951.754, 2591.996 946.804, 2591.992 946.341 C 2591.987 945.879, 2589.849 944.341, 2587.242 942.923 C 2584.634 941.506, 2573.050 935.057, 2561.500 928.592 C 2520.747 905.781, 2461.516 877.742, 2426.500 864.685 C 2395.533 853.139, 2363.969 842.068, 2350.955 838.189 C 2343.555 835.984, 2329.975 831.909, 2320.777 829.135 C 2293.722 820.975, 2240.799 808.446, 2212.500 803.502 C 2172.634 796.537, 2156.042 793.943, 2139.491 792.086 C 2121.373 790.053, 2113.481 789.317, 2080.500 786.588 C 2062.155 785.071, 2017.514 783.819, 2016.538 784.795 M 1372 968.996 C 1367.325 972.178, 1358.658 977.868, 1352.740 981.641 C 1305.121 1011.996, 1243.053 1061.354, 1198 1104.695 C 1177.955 1123.978, 1149.465 1153.307, 1137.500 1166.976 C 1132 1173.260, 1124.340 1181.798, 1120.478 1185.951 C 1106.355 1201.134, 1078.181 1235.843, 1063.715 1255.879 C 1059.197 1262.137, 1052.823 1270.912, 1049.551 1275.379 C 1031.234 1300.383, 1003.322 1344.586, 986.013 1376 C 982.528 1382.325, 979.020 1388.271, 978.217 1389.213 C 977.414 1390.155, 976.999 1391.556, 977.295 1392.327 C 977.591 1393.098, 981.748 1395.845, 986.532 1398.432 C 991.317 1401.019, 1000.467 1406.397, 1006.866 1410.382 C 1013.265 1414.368, 1025.925 1421.823, 1035 1426.950 C 1053.053 1437.148, 1077.076 1451.152, 1086.500 1456.972 C 1089.800 1459.010, 1100.600 1465.303, 1110.500 1470.958 C 1129.798 1481.979, 1153.623 1495.860, 1169 1505.040 C 1174.225 1508.159, 1181.650 1512.428, 1185.500 1514.527 C 1194.614 1519.494, 1208.545 1527.556, 1223.500 1536.517 C 1234.577 1543.155, 1242.876 1548.035, 1277 1567.975 C 1283.875 1571.992, 1295.800 1578.975, 1303.500 1583.493 C 1311.200 1588.011, 1323.125 1594.856, 1330 1598.704 C 1336.875 1602.552, 1347.675 1608.762, 1354 1612.503 C 1370.707 1622.384, 1391.229 1634.391, 1409.500 1644.974 C 1418.300 1650.071, 1430.225 1657.050, 1436 1660.482 C 1458.738 1673.995, 1480.835 1686.877, 1487.500 1690.506 C 1491.350 1692.602, 1496.381 1695.595, 1498.680 1697.158 C 1504.807 1701.324, 1506.276 1700.948, 1510.043 1694.250 C 1529.897 1658.951, 1576.865 1604.330, 1619.115 1567.405 C 1641.190 1548.112, 1682.068 1517.549, 1693.750 1511.603 C 1695.537 1510.693, 1697 1509.511, 1697 1508.975 C 1697 1507.928, 1687.783 1491.593, 1670.496 1462 C 1664.552 1451.825, 1655.646 1436.525, 1650.704 1428 C 1638.664 1407.228, 1625.692 1385.005, 1617.431 1371 C 1608.832 1356.420, 1595.862 1334.044, 1569.321 1288 C 1557.750 1267.925, 1541.329 1239.575, 1532.830 1225 C 1524.332 1210.425, 1515.655 1195.350, 1513.548 1191.500 C 1509.012 1183.212, 1496.521 1161.699, 1478.998 1132 C 1472.021 1120.175, 1460.333 1100.150, 1453.026 1087.500 C 1445.718 1074.850, 1437.840 1061.350, 1435.519 1057.500 C 1433.198 1053.650, 1427.110 1043.075, 1421.990 1034 C 1416.870 1024.925, 1407.607 1008.885, 1401.406 998.356 C 1395.206 987.828, 1388.566 976.102, 1386.651 972.299 C 1384.736 968.496, 1382.568 964.895, 1381.834 964.297 C 1380.817 963.468, 1378.479 964.586, 1372 968.996 M 2565.250 1368.610 C 2564.563 1368.916, 2564 1369.604, 2564 1370.138 C 2564 1371.406, 2570.766 1381.429, 2578.420 1391.500 C 2585.911 1401.357, 2586.586 1402.081, 2587.464 1401.202 C 2587.851 1400.816, 2588.034 1400.950, 2587.871 1401.500 C 2587.569 1402.521, 2589.754 1407.096, 2590.975 1408 C 2591.346 1408.275, 2593.611 1411.425, 2596.007 1415 C 2599.891 1420.795, 2605.643 1428.643, 2607 1430 C 2607.275 1430.275, 2608.069 1431.400, 2608.764 1432.500 C 2612.272 1438.048, 2613.960 1440.592, 2614.737 1441.500 C 2615.207 1442.050, 2618.986 1447.450, 2623.133 1453.500 C 2627.281 1459.550, 2632.575 1467.200, 2634.897 1470.500 C 2637.219 1473.800, 2640.700 1478.750, 2642.634 1481.500 C 2644.567 1484.250, 2650.194 1492.125, 2655.138 1499 C 2660.082 1505.875, 2667.689 1516.675, 2672.041 1523 C 2676.393 1529.325, 2680.315 1534.950, 2680.756 1535.500 C 2681.196 1536.050, 2682.763 1538.525, 2684.238 1541 C 2685.713 1543.475, 2688.288 1547.023, 2689.960 1548.886 C 2691.632 1550.748, 2693 1552.628, 2693 1553.064 C 2693 1553.500, 2693.584 1554.452, 2694.297 1555.179 C 2695.010 1555.905, 2698.661 1561.118, 2702.409 1566.763 C 2706.157 1572.407, 2709.736 1577.357, 2710.362 1577.763 C 2710.988 1578.168, 2712.105 1579.574, 2712.844 1580.887 C 2713.583 1582.200, 2714.968 1584.675, 2715.921 1586.387 C 2716.874 1588.099, 2719.315 1592.483, 2721.346 1596.130 L 2725.037 1602.759 2714.769 1609.250 C 2699.467 1618.921, 2676.868 1632.579, 2665 1639.328 C 2655.422 1644.774, 2644.461 1651.078, 2619.500 1665.498 C 2614.550 1668.357, 2601.500 1676.108, 2590.500 1682.722 C 2579.500 1689.336, 2557.114 1702.710, 2540.753 1712.441 L 2511.007 1730.135 2515.083 1737.318 C 2533.840 1770.363, 2552.292 1819.505, 2564.350 1868.529 C 2570.771 1894.635, 2577.146 1939.894, 2578.665 1970.173 C 2579.256 1981.928, 2579.453 1982.886, 2581.401 1983.409 C 2582.555 1983.719, 2714.554 1983.979, 2874.731 1983.986 L 3165.962 1984 3166.618 1981.386 C 3167.949 1976.082, 3163.967 1876.811, 3161.549 1855 C 3160.725 1847.575, 3159.567 1836.550, 3158.975 1830.500 C 3156.521 1805.418, 3148.597 1753.864, 3142.992 1726.500 C 3133.260 1678.993, 3129.900 1665.053, 3118.888 1626.500 C 3105.626 1580.065, 3090.624 1537.194, 3073.571 1497 C 3064.749 1476.206, 3043.453 1431.488, 3039.233 1424.894 C 3037.219 1421.747, 3037.048 1420.743, 3037.889 1416.999 C 3038.419 1414.639, 3039.223 1412.437, 3039.676 1412.105 C 3040.580 1411.441, 3040.924 1410.188, 3041.235 1406.433 C 3041.369 1404.816, 3041.907 1404.134, 3042.785 1404.471 C 3043.764 1404.847, 3043.947 1404.410, 3043.458 1402.868 C 3043.046 1401.570, 3043.170 1400.987, 3043.777 1401.362 C 3044.322 1401.699, 3045.364 1400.518, 3046.092 1398.737 C 3047.687 1394.836, 3049.482 1392.843, 3050.541 1393.798 C 3050.970 1394.184, 3051.016 1393.968, 3050.644 1393.318 C 3050.266 1392.659, 3050.956 1391.444, 3052.206 1390.568 C 3053.437 1389.706, 3054.090 1389, 3053.656 1389 C 3053.221 1389, 3054.452 1387.065, 3056.389 1384.700 L 3059.912 1380.401 3007.706 1379.148 C 2978.993 1378.459, 2950.775 1377.693, 2945 1377.445 C 2939.225 1377.198, 2914.700 1376.538, 2890.500 1375.980 C 2803.963 1373.985, 2712.396 1371.948, 2644.500 1370.508 C 2606.550 1369.703, 2573.475 1368.821, 2571 1368.549 C 2568.525 1368.276, 2565.938 1368.304, 2565.250 1368.610 M 2627.615 1401.528 C 2625.733 1403.410, 2625.602 1403.136, 2633.046 1413 C 2636.159 1417.125, 2640.265 1422.750, 2642.172 1425.500 C 2644.078 1428.250, 2648.082 1434.025, 2651.069 1438.333 C 2654.056 1442.641, 2658.525 1449.011, 2661 1452.488 C 2663.475 1455.965, 2670 1465.189, 2675.500 1472.986 C 2681 1480.782, 2689.929 1493.312, 2695.343 1500.831 C 2705.422 1514.828, 2730.452 1552.179, 2739.351 1566.500 C 2745.016 1575.616, 2752.312 1590.004, 2756.847 1601 C 2761.588 1612.499, 2779.097 1658.935, 2785.501 1677 C 2788.913 1686.623, 2794.088 1700.841, 2795.510 1704.500 C 2795.937 1705.600, 2797.617 1710.100, 2799.242 1714.500 C 2800.867 1718.900, 2804.348 1728.125, 2806.979 1735 C 2809.610 1741.875, 2812.077 1748.967, 2812.463 1750.760 C 2813.245 1754.401, 2815.391 1757, 2817.613 1757 C 2818.454 1757, 2820.309 1754.268, 2821.948 1750.617 C 2826.561 1740.334, 2834.072 1727.926, 2835.244 1728.651 C 2835.837 1729.017, 2836.019 1728.840, 2835.655 1728.251 C 2834.939 1727.092, 2852.511 1692.744, 2869.547 1662 C 2875.490 1651.275, 2883.185 1636.975, 2886.646 1630.221 C 2890.107 1623.468, 2898.526 1607.943, 2905.354 1595.721 C 2917.086 1574.724, 2926.556 1557.319, 2936.761 1538 C 2943.813 1524.651, 2951.885 1510.257, 2957.513 1501 C 2960.355 1496.325, 2965.506 1487.100, 2968.961 1480.500 C 2972.415 1473.900, 2979.839 1460.400, 2985.459 1450.500 C 2991.079 1440.600, 2997.626 1428.808, 3000.007 1424.295 C 3002.389 1419.782, 3004.599 1416.251, 3004.919 1416.448 C 3005.238 1416.645, 3005.623 1415.050, 3005.774 1412.903 C 3005.982 1409.946, 3005.677 1409, 3004.517 1409 C 2993.331 1409, 2938.910 1407.912, 2931 1407.531 C 2925.225 1407.252, 2904.975 1406.785, 2886 1406.493 C 2852.322 1405.974, 2831.221 1405.406, 2812 1404.502 C 2806.775 1404.256, 2784.725 1403.801, 2763 1403.491 C 2741.275 1403.182, 2721.475 1402.734, 2719 1402.496 C 2716.525 1402.258, 2696.500 1401.800, 2674.500 1401.479 C 2652.500 1401.157, 2633.318 1400.669, 2631.874 1400.395 C 2630.222 1400.081, 2628.641 1400.501, 2627.615 1401.528 M 959.976 1425.271 C 958.893 1427.047, 958.006 1428.807, 958.004 1429.182 C 958.002 1429.558, 954.583 1436.983, 950.406 1445.682 C 908.612 1532.740, 877.430 1625.086, 859.974 1713.500 C 849.835 1764.849, 842.822 1811.427, 839.496 1849.500 C 838.727 1858.300, 837.639 1870, 837.077 1875.500 C 836.085 1885.213, 834.398 1932.021, 833.796 1966.500 L 833.500 1983.500 1127.500 1983.500 L 1421.500 1983.500 1422.207 1972 C 1424.224 1939.190, 1428.154 1905.963, 1432.963 1881.056 C 1435.255 1869.186, 1444.224 1836.586, 1450.019 1819.065 C 1456.353 1799.913, 1476.884 1753.609, 1485.844 1738.266 C 1488.130 1734.353, 1489.989 1730.555, 1489.976 1729.826 C 1489.963 1729.096, 1485.813 1726.250, 1480.754 1723.500 C 1475.695 1720.750, 1462.318 1712.935, 1451.028 1706.133 C 1439.738 1699.331, 1425.325 1690.835, 1419 1687.252 C 1412.675 1683.669, 1402.325 1677.701, 1396 1673.990 C 1389.675 1670.279, 1373.025 1660.602, 1359 1652.487 C 1344.975 1644.371, 1328.100 1634.466, 1321.500 1630.476 C 1308.215 1622.444, 1270.126 1600.442, 1251.500 1590.041 C 1234.819 1580.727, 1209.600 1566.035, 1202.895 1561.726 C 1199.813 1559.745, 1175.513 1545.654, 1148.895 1530.411 C 1122.278 1515.169, 1085.875 1494.137, 1068 1483.673 C 1050.125 1473.210, 1027.850 1460.313, 1018.500 1455.014 C 995.703 1442.092, 977.686 1431.471, 971 1427.012 C 962.907 1421.615, 962.267 1421.514, 959.976 1425.271 M 1017.594 2015.753 L 834.688 2016.005 835.314 2032.753 C 836.498 2064.402, 842.670 2120.763, 848.921 2157 C 860.374 2223.400, 874.029 2278.399, 891.995 2330.500 C 915.155 2397.661, 926.851 2426.277, 951.056 2475 C 972.414 2517.992, 993.768 2556, 996.566 2556 C 998.005 2556, 1024.953 2540.661, 1066.500 2516.192 C 1097.400 2497.993, 1103.574 2494.399, 1124 2482.718 C 1133.625 2477.213, 1150.500 2467.454, 1161.500 2461.030 C 1172.500 2454.606, 1184.200 2447.850, 1187.500 2446.016 C 1192.945 2442.990, 1221.039 2426.489, 1248 2410.482 C 1253.775 2407.053, 1264.125 2401.203, 1271 2397.481 C 1277.875 2393.759, 1290.475 2386.569, 1299 2381.504 C 1319.242 2369.478, 1338.743 2358.074, 1364 2343.494 C 1375.275 2336.986, 1388.100 2329.560, 1392.500 2326.992 C 1396.900 2324.425, 1409.050 2317.377, 1419.500 2311.330 C 1429.950 2305.283, 1447.950 2294.814, 1459.500 2288.064 C 1471.050 2281.315, 1482.638 2274.707, 1485.250 2273.379 C 1488.021 2271.972, 1490 2270.279, 1490 2269.317 C 1490 2268.410, 1488.026 2264.480, 1485.613 2260.584 C 1477.420 2247.354, 1468.738 2228.553, 1458.417 2201.687 C 1436.384 2144.339, 1426.599 2098.110, 1422.118 2030.204 C 1421.636 2022.891, 1421.067 2016.734, 1420.855 2016.521 C 1420.214 2015.881, 1212.126 2015.484, 1017.594 2015.753 M 2580.845 2015.704 C 2579.469 2016.042, 2579.087 2018.077, 2578.575 2027.805 C 2576.242 2072.169, 2569.139 2114.649, 2556.973 2157 C 2552.491 2172.600, 2541.039 2206.168, 2535.480 2220 C 2529.590 2234.653, 2516.563 2262.469, 2514.157 2265.528 C 2510.718 2269.899, 2509.224 2268.467, 2531 2281.668 C 2537.325 2285.503, 2549.700 2292.852, 2558.500 2297.999 C 2567.300 2303.147, 2580.350 2310.814, 2587.500 2315.037 C 2615.624 2331.646, 2648.894 2350.925, 2656.500 2355.018 C 2660.900 2357.386, 2670.350 2362.794, 2677.500 2367.036 C 2701.725 2381.406, 2714.453 2388.764, 2732 2398.543 C 2741.625 2403.907, 2750.625 2409.070, 2752 2410.015 C 2754.547 2411.767, 2794.372 2435.191, 2826 2453.540 C 2835.625 2459.125, 2849.125 2466.993, 2856 2471.026 C 2862.875 2475.059, 2872.100 2480.253, 2876.500 2482.568 C 2880.900 2484.883, 2890.350 2490.260, 2897.500 2494.516 C 2909.964 2501.937, 2927.347 2512.086, 2963 2532.760 C 2982.897 2544.297, 2996.577 2552.355, 3000.124 2554.629 C 3001.567 2555.554, 3003.403 2556.059, 3004.203 2555.752 C 3005.607 2555.214, 3013.565 2542.390, 3025.458 2521.500 C 3038.287 2498.968, 3065.671 2441.268, 3079.799 2407 C 3114.614 2322.558, 3138.835 2235.630, 3151.966 2148 C 3153.655 2136.725, 3155.472 2125.250, 3156.004 2122.500 C 3157.672 2113.865, 3162.878 2063.282, 3163.980 2045 C 3164.560 2035.375, 3165.310 2024.912, 3165.647 2021.750 L 3166.258 2016 2881.379 2015.867 C 2724.696 2015.793, 2593.350 2015.635, 2589.500 2015.516 C 2585.650 2015.396, 2581.755 2015.481, 2580.845 2015.704 M 2273.002 2176.250 C 2262.624 2194.890, 2248.469 2213.723, 2234.359 2227.662 C 2221.034 2240.826, 2207.761 2251.060, 2191.059 2261.046 C 2184.390 2265.035, 2179.060 2268.568, 2179.216 2268.899 C 2179.608 2269.731, 2192.469 2292.538, 2210.004 2323.500 C 2218.103 2337.800, 2228.905 2357.375, 2234.009 2367 C 2239.113 2376.625, 2251.407 2398.900, 2261.330 2416.500 C 2271.252 2434.100, 2281.955 2453.111, 2285.114 2458.746 C 2288.274 2464.381, 2291.723 2470.231, 2292.779 2471.746 C 2293.835 2473.261, 2299.792 2483.725, 2306.015 2495 C 2317.625 2516.033, 2338.482 2552.581, 2350.529 2573 C 2354.261 2579.325, 2360.769 2590.575, 2364.992 2598 C 2382.248 2628.344, 2386.906 2636.485, 2399.319 2658 C 2412.296 2680.493, 2424.833 2701.994, 2434.304 2718 C 2437.070 2722.675, 2441.872 2731, 2444.974 2736.500 C 2464.254 2770.686, 2500.080 2832.693, 2510.565 2850.027 C 2515.066 2857.466, 2520.912 2867.591, 2523.558 2872.527 C 2526.203 2877.462, 2533.319 2890.050, 2539.370 2900.500 C 2548.100 2915.576, 2569.051 2951.869, 2580.932 2972.500 C 2581.883 2974.150, 2583.601 2975.639, 2584.752 2975.809 C 2587.257 2976.180, 2588.332 2975.512, 2630.421 2947.426 C 2677.573 2915.961, 2697.467 2901.356, 2736 2869.916 C 2807.728 2811.392, 2880.419 2735.249, 2934.013 2662.500 C 2939.686 2654.800, 2947.516 2644.245, 2951.413 2639.044 C 2960.785 2626.539, 2987 2586.963, 2987 2585.320 C 2987 2583.559, 2978.639 2578.409, 2945.500 2559.758 C 2926.897 2549.287, 2916.829 2543.433, 2851 2504.803 C 2843.025 2500.123, 2822.100 2488.062, 2804.500 2478 C 2770.903 2458.793, 2746.551 2444.635, 2740.015 2440.509 C 2737.876 2439.159, 2732.611 2436.091, 2728.314 2433.690 C 2724.016 2431.290, 2705.425 2420.631, 2687 2410.005 C 2668.575 2399.378, 2642.025 2384.076, 2628 2375.999 C 2584.453 2350.922, 2558.403 2335.768, 2469 2283.506 C 2458.825 2277.558, 2435.425 2264.058, 2417 2253.505 C 2398.575 2242.953, 2376.750 2230.345, 2368.500 2225.488 C 2360.250 2220.631, 2345.175 2211.850, 2335 2205.973 C 2324.825 2200.097, 2309.490 2190.998, 2300.922 2185.753 C 2285.183 2176.117, 2277.788 2172, 2276.224 2172 C 2275.753 2172, 2274.303 2173.912, 2273.002 2176.250 M 1496.500 2304.399 C 1491.550 2307.324, 1483.450 2311.957, 1478.500 2314.696 C 1466.764 2321.189, 1439.687 2336.874, 1434.209 2340.353 C 1428.465 2344, 1401.737 2359.464, 1341.283 2394.120 C 1313.663 2409.954, 1283.513 2427.351, 1274.283 2432.783 C 1265.052 2438.214, 1251.875 2445.956, 1245 2449.988 C 1238.125 2454.020, 1224.950 2461.747, 1215.723 2467.159 C 1206.496 2472.572, 1198.749 2477, 1198.508 2477 C 1198.267 2477, 1193.216 2479.862, 1187.285 2483.361 C 1137.974 2512.446, 1122.494 2521.495, 1102 2533.217 C 1089.075 2540.610, 1071.975 2550.493, 1064 2555.179 C 1051.290 2562.647, 1029.946 2574.897, 1017.684 2581.761 C 1015.463 2583.004, 1013.442 2584.224, 1013.194 2584.473 C 1011.921 2585.746, 1047.432 2637.537, 1072.865 2671.500 C 1087.847 2691.507, 1126.473 2737.754, 1143.857 2756.500 C 1147.428 2760.350, 1164.160 2777.272, 1181.041 2794.104 C 1221.375 2834.322, 1263.702 2870.745, 1314 2908.518 C 1340.912 2928.728, 1413.453 2977, 1416.912 2977 C 1417.488 2977, 1418.923 2975.088, 1420.101 2972.750 C 1421.279 2970.412, 1423.713 2966.025, 1425.508 2963 C 1427.304 2959.975, 1433.170 2949.625, 1438.545 2940 C 1443.919 2930.375, 1451.765 2916.650, 1455.980 2909.500 C 1460.195 2902.350, 1466.588 2891.325, 1470.188 2885 C 1473.787 2878.675, 1485.287 2858.650, 1495.743 2840.500 C 1506.198 2822.350, 1518.018 2801.650, 1522.008 2794.500 C 1531.648 2777.226, 1547.385 2749.966, 1552.027 2742.500 C 1557.975 2732.935, 1590.157 2678.431, 1596.017 2668 C 1603.363 2654.924, 1623.985 2619.369, 1637.488 2596.500 C 1643.659 2586.050, 1654.235 2567.825, 1660.992 2556 C 1667.748 2544.175, 1678.614 2525.576, 1685.138 2514.669 C 1691.662 2503.762, 1696.991 2494.087, 1696.981 2493.169 C 1696.969 2492.149, 1692.218 2488.388, 1684.765 2483.500 C 1624.406 2443.908, 1580.748 2403.134, 1539.219 2347.567 C 1527.402 2331.757, 1519.676 2320.423, 1512.075 2307.750 C 1509.189 2302.938, 1506.528 2299.019, 1506.164 2299.041 C 1505.799 2299.064, 1501.450 2301.475, 1496.500 2304.399 M 1723.514 2513.750 C 1722.067 2516.912, 1716.829 2526.141, 1711.875 2534.259 C 1706.921 2542.376, 1696.218 2560.601, 1688.091 2574.759 C 1679.963 2588.916, 1668.474 2608.825, 1662.559 2619 C 1656.644 2629.175, 1648.397 2643.575, 1644.233 2651 C 1640.069 2658.425, 1632.309 2671.700, 1626.989 2680.500 C 1621.669 2689.300, 1613.117 2703.925, 1607.986 2713 C 1602.854 2722.075, 1592.736 2739.625, 1585.502 2752 C 1578.268 2764.375, 1569.958 2778.775, 1567.035 2784 C 1564.113 2789.225, 1555.780 2803.419, 1548.518 2815.541 C 1541.256 2827.664, 1530.905 2845.439, 1525.514 2855.041 C 1508.442 2885.455, 1459.039 2972.097, 1452.865 2982.452 C 1449.602 2987.926, 1447.059 2993.045, 1447.216 2993.827 C 1447.853 2997.016, 1543.044 3043.660, 1562.765 3050.447 C 1566.469 3051.722, 1576.411 3055.547, 1584.858 3058.947 C 1643.510 3082.558, 1721.232 3106.217, 1772 3115.914 C 1777.775 3117.017, 1790.825 3119.508, 1801 3121.449 C 1851.086 3131.002, 1909.052 3137.362, 1966.250 3139.579 L 1984 3140.267 1984 2859.701 C 1984 2593.351, 1983.911 2579.110, 1982.250 2578.639 C 1981.287 2578.366, 1975.775 2577.848, 1970 2577.488 C 1915.032 2574.058, 1872.010 2565.783, 1821.803 2548.980 C 1794.688 2539.906, 1770.451 2529.803, 1744.945 2516.945 C 1735.186 2512.025, 1726.965 2508, 1726.674 2508 C 1726.384 2508, 1724.962 2510.588, 1723.514 2513.750 M 2269.500 2510.313 C 2265.743 2512.902, 2246.516 2522.779, 2236.295 2527.370 C 2208.921 2539.666, 2170.559 2552.912, 2140.182 2560.559 C 2103.441 2569.808, 2078.746 2573.593, 2032.311 2577.092 L 2016.122 2578.312 2016.107 2857.922 C 2016.099 3012.747, 2016.477 3138.154, 2016.955 3138.926 C 2017.664 3140.074, 2020.981 3140.210, 2035.658 3139.696 C 2068.769 3138.536, 2101.431 3136.100, 2132.500 3132.473 C 2172.013 3127.860, 2238.898 3115.419, 2269.826 3106.930 C 2275.697 3105.319, 2284.100 3103.058, 2288.500 3101.906 C 2304.276 3097.774, 2364.582 3078.451, 2386.500 3070.504 C 2406.566 3063.228, 2440.749 3049.548, 2459 3041.487 C 2494.127 3025.974, 2539.213 3003.941, 2550.806 2996.622 C 2554.798 2994.103, 2556.280 2990.909, 2554.086 2989.553 C 2553.066 2988.923, 2539.987 2966.698, 2522.143 2935.276 C 2509.015 2912.158, 2498.904 2894.649, 2486.179 2873 C 2477.411 2858.084, 2474.191 2852.508, 2440.841 2794.500 C 2430.090 2775.800, 2419.361 2757.350, 2416.998 2753.500 C 2412.117 2745.546, 2400.777 2725.934, 2381.727 2692.500 C 2368.492 2669.271, 2356.904 2649.233, 2345.585 2630 C 2329.228 2602.208, 2320.131 2586.442, 2299.140 2549.500 C 2279.643 2515.189, 2276.061 2509.460, 2273.955 2509.217 C 2272.605 2509.061, 2270.600 2509.554, 2269.500 2510.313" stroke="none" fill="#070f1b" fill-rule="evenodd"/><path d="M -0 2000 L -0 4000 2000.250 3999.750 L 4000.500 3999.500 4000.750 1999.750 L 4001 -0 2000.500 -0 L 0 0 -0 2000 M 0.499 2000.500 C 0.499 3100.500, 0.612 3550.350, 0.750 3000.167 C 0.888 2449.984, 0.888 1549.984, 0.750 1000.167 C 0.612 450.350, 0.499 900.500, 0.499 2000.500 M 1943 784.649 C 1919.107 785.296, 1854.399 792.454, 1817.500 798.533 C 1774.836 805.560, 1751.437 810.361, 1714.697 819.626 C 1691.644 825.439, 1684.791 827.401, 1652 837.581 C 1613.637 849.491, 1574.453 863.885, 1537 879.827 C 1514.935 889.219, 1458.370 917.711, 1432.512 932.459 C 1420.418 939.357, 1410.180 945, 1409.762 945 C 1408.198 945, 1409.129 947.229, 1413.841 954.761 C 1416.504 959.017, 1421.771 968.125, 1425.546 975 C 1429.321 981.875, 1436.643 994.700, 1441.816 1003.500 C 1446.990 1012.300, 1455.077 1026.250, 1459.787 1034.500 C 1464.497 1042.750, 1472.708 1056.925, 1478.033 1066 C 1490.396 1087.070, 1502.219 1107.645, 1512.510 1126 C 1516.981 1133.975, 1523.576 1145.450, 1527.165 1151.500 C 1552.599 1194.372, 1559.197 1205.722, 1582.974 1247.500 C 1597.021 1272.182, 1613.265 1300.191, 1625.020 1320 C 1632.037 1331.825, 1646.440 1356.575, 1657.027 1375 C 1667.615 1393.425, 1680.104 1415.025, 1684.781 1423 C 1689.458 1430.975, 1696.449 1442.900, 1700.315 1449.500 C 1710.297 1466.540, 1722.916 1489.159, 1723.544 1491.137 C 1724.629 1494.557, 1727.303 1493.868, 1740.094 1486.873 C 1766.975 1472.173, 1805.713 1456.276, 1838 1446.694 C 1850.524 1442.977, 1891.967 1433.421, 1903.500 1431.590 C 1927.663 1427.755, 1945.884 1425.886, 1964.752 1425.307 L 1985.003 1424.685 1984.752 1104.593 L 1984.500 784.500 1968.500 784.446 C 1959.700 784.416, 1948.225 784.507, 1943 784.649 M 2015.988 784.589 C 2015.828 796.477, 2016.098 1423.431, 2016.263 1423.596 C 2016.394 1423.727, 2025.726 1424.327, 2037.001 1424.930 C 2075.080 1426.966, 2095.965 1430.131, 2140 1440.541 C 2178.898 1449.737, 2240.426 1473.353, 2264.855 1488.464 C 2269.777 1491.509, 2274.293 1494, 2274.890 1494 C 2275.486 1494, 2277.565 1490.843, 2279.508 1486.983 C 2281.452 1483.124, 2284.820 1477.062, 2286.993 1473.511 C 2292.662 1464.250, 2322.422 1412.844, 2330.998 1397.500 C 2339.275 1382.691, 2342.594 1377.044, 2363.029 1343 C 2371.118 1329.525, 2387.526 1301.400, 2399.492 1280.500 C 2424.544 1236.741, 2457.819 1179.302, 2482.333 1137.500 C 2491.686 1121.550, 2509.226 1091.175, 2521.309 1070 C 2533.393 1048.825, 2549.698 1020.475, 2557.542 1007 C 2565.387 993.525, 2574.040 978.450, 2576.773 973.500 C 2579.506 968.550, 2584.261 960.497, 2587.339 955.603 C 2590.418 950.710, 2592.730 946.373, 2592.478 945.964 C 2590.973 943.529, 2537.508 914.587, 2506.500 899.422 C 2445.162 869.423, 2391.822 849.293, 2310.500 825.451 C 2306.100 824.162, 2292.375 820.657, 2280 817.663 C 2212.866 801.423, 2164.389 793.401, 2095 787.047 C 2070.381 784.793, 2016.008 783.101, 2015.988 784.589 M 1376.226 965.344 C 1374.425 966.530, 1369.438 969.983, 1365.143 973.017 C 1360.849 976.052, 1354.747 980.102, 1351.583 982.017 C 1327.238 996.757, 1298.122 1018.254, 1254.351 1053.804 C 1221.623 1080.387, 1165.126 1134.791, 1135.473 1168.280 C 1127.788 1176.959, 1118.182 1187.759, 1114.126 1192.280 C 1099.488 1208.596, 1070.874 1244.397, 1059.703 1260.370 C 1056.291 1265.249, 1050.714 1273.017, 1047.308 1277.632 C 1040.011 1287.523, 1021.102 1315.521, 1014.980 1325.500 C 1005.984 1340.163, 984.776 1376.502, 981.973 1382.054 C 980.362 1385.244, 978.585 1388.139, 978.022 1388.486 C 977.460 1388.834, 977 1390.210, 977 1391.545 C 977 1393.504, 978.142 1394.548, 982.932 1396.966 C 986.194 1398.612, 993.057 1402.524, 998.182 1405.659 C 1019.961 1418.978, 1026.304 1422.730, 1041 1430.989 C 1058.137 1440.620, 1074.544 1450.179, 1092 1460.702 C 1098.325 1464.515, 1109.350 1470.958, 1116.500 1475.019 C 1123.650 1479.080, 1140.750 1488.999, 1154.500 1497.060 C 1168.250 1505.121, 1185.335 1514.987, 1192.468 1518.983 C 1199.600 1522.980, 1211.975 1530.166, 1219.968 1534.953 C 1227.960 1539.741, 1247.100 1551.010, 1262.500 1559.997 C 1277.900 1568.983, 1296.800 1580.040, 1304.500 1584.566 C 1312.200 1589.093, 1324.125 1595.942, 1331 1599.787 C 1337.875 1603.633, 1347.100 1608.917, 1351.500 1611.530 C 1362.147 1617.854, 1433.329 1659.525, 1448.500 1668.315 C 1455.100 1672.140, 1461.625 1676.033, 1463 1676.967 C 1464.375 1677.901, 1471.350 1681.951, 1478.500 1685.967 C 1485.650 1689.984, 1494.289 1695.046, 1497.698 1697.218 C 1501.106 1699.390, 1504.656 1701.017, 1505.587 1700.833 C 1506.517 1700.650, 1510.414 1695.264, 1514.247 1688.864 C 1539.657 1646.439, 1593.924 1586.922, 1640.500 1550.397 C 1661.291 1534.092, 1687.767 1515.262, 1695.750 1511.102 C 1696.987 1510.457, 1698 1509.552, 1698 1509.091 C 1698 1508.630, 1696.043 1504.934, 1693.651 1500.877 C 1691.260 1496.819, 1681.751 1480.450, 1672.520 1464.500 C 1644.119 1415.423, 1646.835 1420.084, 1613.967 1364 C 1599.926 1340.042, 1593.478 1328.919, 1570.779 1289.500 C 1535.681 1228.549, 1491.525 1152.343, 1470.247 1116 C 1446.474 1075.396, 1407.460 1007.846, 1384.337 967.250 C 1381.615 962.472, 1380.859 962.294, 1376.226 965.344 M 2614.003 972.750 C 2607.674 984.286, 2586.085 1022.062, 2584.998 1023.500 C 2584.582 1024.050, 2580.438 1031.250, 2575.788 1039.500 C 2571.139 1047.750, 2563.500 1061.025, 2558.813 1069 C 2554.127 1076.975, 2545.453 1092.050, 2539.537 1102.500 C 2522.882 1131.922, 2520.075 1136.806, 2513.961 1147 C 2510.826 1152.225, 2502.747 1166.175, 2496.006 1178 C 2489.266 1189.825, 2480.725 1204.675, 2477.027 1211 C 2473.329 1217.325, 2464.314 1232.850, 2456.993 1245.500 C 2449.672 1258.150, 2437.964 1278.175, 2430.975 1290 C 2423.986 1301.825, 2414.539 1318.025, 2409.981 1326 C 2405.424 1333.975, 2396.514 1349.275, 2390.183 1360 C 2383.851 1370.725, 2375.986 1384.225, 2372.704 1390 C 2369.422 1395.775, 2361.223 1409.725, 2354.484 1421 C 2347.746 1432.275, 2339.988 1445.550, 2337.244 1450.500 C 2334.501 1455.450, 2326.099 1470.475, 2318.574 1483.889 C 2311.049 1497.303, 2305.120 1508.869, 2305.397 1509.592 C 2305.674 1510.315, 2307.836 1512.165, 2310.201 1513.703 C 2327.362 1524.867, 2363.274 1551.656, 2377.500 1563.906 C 2421.212 1601.546, 2454.956 1640.220, 2485.997 1688.250 C 2490.529 1695.263, 2494.756 1701, 2495.390 1701 C 2496.025 1701, 2502.609 1697.364, 2510.022 1692.921 C 2523.846 1684.634, 2579.010 1652.594, 2596 1642.984 C 2601.225 1640.028, 2610 1634.843, 2615.500 1631.461 C 2621 1628.079, 2635.175 1619.759, 2647 1612.974 C 2658.825 1606.188, 2673.225 1597.730, 2679 1594.179 C 2694.998 1584.342, 2706.158 1578, 2707.469 1578 C 2709.776 1578, 2715.901 1586.798, 2721.877 1598.694 L 2723.984 1602.888 2715.242 1608.384 C 2710.434 1611.407, 2702.225 1616.446, 2697 1619.583 C 2691.775 1622.719, 2682.550 1628.308, 2676.500 1632.003 C 2670.450 1635.698, 2657.175 1643.430, 2647 1649.185 C 2625.425 1661.388, 2611.183 1669.708, 2587 1684.237 C 2552.708 1704.838, 2517.449 1725.752, 2514.250 1727.389 C 2510.325 1729.396, 2510.216 1730.757, 2513.579 1735.706 C 2517.849 1741.987, 2531.452 1770.507, 2537.806 1786.500 C 2549.565 1816.097, 2561.886 1856.845, 2567.120 1883.445 C 2572.589 1911.240, 2576.814 1944.738, 2577.848 1968.500 L 2578.500 1983.500 2872.871 1983.752 L 3167.243 1984.003 3166.705 1949.752 C 3166.167 1915.552, 3164.909 1886.722, 3163.005 1865 C 3152.822 1748.845, 3130.425 1647.389, 3091.256 1540 C 3081.119 1512.205, 3065.780 1476.707, 3050.639 1446 L 3038.066 1420.500 3040.970 1416.424 C 3042.567 1414.182, 3046.460 1407.432, 3049.620 1401.424 C 3052.780 1395.416, 3056.838 1388.286, 3058.637 1385.581 C 3060.437 1382.875, 3061.678 1380.288, 3061.395 1379.831 C 3061.113 1379.374, 3053.550 1379, 3044.588 1379 C 3035.626 1379, 3025.530 1378.711, 3022.153 1378.358 L 3016.013 1377.716 3006.332 1361.108 C 3001.007 1351.974, 2993.885 1340.225, 2990.505 1335 C 2987.125 1329.775, 2980.160 1318.750, 2975.027 1310.500 C 2960.178 1286.636, 2954.666 1278.759, 2928.401 1243.866 C 2912.809 1223.152, 2886.859 1191.342, 2872.629 1175.500 C 2852.342 1152.914, 2812.046 1111.363, 2799 1099.577 C 2765.239 1069.076, 2730.446 1039.834, 2705.316 1020.838 C 2676.189 998.821, 2623.848 963, 2620.803 963 C 2619.999 963, 2616.966 967.347, 2614.003 972.750 M 960.200 1423.200 C 959.540 1423.860, 959 1424.749, 959 1425.175 C 959 1426.068, 956.536 1431.482, 944.684 1456.634 C 905.548 1539.684, 876.836 1626.244, 859.506 1713.430 C 849.718 1762.671, 841.450 1816.606, 839.489 1844 C 839.155 1848.675, 838.223 1858.221, 837.419 1865.212 C 835.718 1880.013, 834.341 1909.960, 833.371 1953.237 L 832.683 1983.974 1126.591 1984.237 C 1288.241 1984.382, 1420.993 1984.366, 1421.596 1984.202 C 1422.295 1984.012, 1422.927 1978.181, 1423.344 1968.077 C 1424.355 1943.538, 1428.676 1906.258, 1433.088 1884 C 1435.774 1870.448, 1445.857 1833.474, 1450.515 1820.094 C 1459.020 1795.665, 1476.359 1756.438, 1486.551 1738.569 C 1489.039 1734.207, 1490.873 1730.112, 1490.627 1729.470 C 1490.380 1728.827, 1483.051 1724.246, 1474.339 1719.289 C 1465.628 1714.332, 1449.500 1704.885, 1438.500 1698.295 C 1427.500 1691.706, 1397.575 1674.161, 1372 1659.306 C 1346.425 1644.451, 1317.850 1627.801, 1308.500 1622.306 C 1299.150 1616.812, 1275.075 1602.942, 1255 1591.484 C 1234.925 1580.027, 1214.450 1568.188, 1209.500 1565.176 C 1195.598 1556.715, 1186.651 1551.511, 1142.500 1526.199 C 1106.415 1505.512, 1067.791 1483.128, 1039.500 1466.507 C 1034.550 1463.599, 1023.525 1457.271, 1015 1452.445 C 995.081 1441.169, 979.245 1431.816, 970.803 1426.342 C 963.711 1421.743, 962.126 1421.274, 960.200 1423.200 M 834.480 2016.032 C 833.037 2018.368, 837.880 2082.817, 841.565 2110.312 C 842.390 2116.465, 843.503 2124.875, 844.039 2129 C 849.374 2170.085, 862.345 2231.993, 875.992 2281.500 C 887.705 2323.994, 917.406 2405.268, 935.142 2443.360 C 957.115 2490.550, 993.090 2557, 996.666 2557 C 997.476 2557, 1001.596 2554.900, 1005.820 2552.332 C 1010.044 2549.765, 1020.700 2543.538, 1029.500 2538.495 C 1038.300 2533.451, 1052.250 2525.349, 1060.500 2520.491 C 1089.319 2503.519, 1092.672 2501.563, 1117.500 2487.241 C 1131.250 2479.309, 1146.550 2470.450, 1151.500 2467.553 C 1156.450 2464.656, 1166.350 2458.914, 1173.500 2454.793 C 1206.840 2435.580, 1211.778 2432.697, 1236.153 2418.225 C 1246.412 2412.134, 1261.262 2403.591, 1269.153 2399.241 C 1277.044 2394.891, 1288.563 2388.332, 1294.750 2384.666 C 1319.796 2369.826, 1329.486 2364.149, 1351 2351.715 C 1363.375 2344.562, 1379.350 2335.325, 1386.500 2331.188 C 1393.650 2327.051, 1403.100 2321.648, 1407.500 2319.181 C 1411.900 2316.714, 1424.725 2309.206, 1436 2302.496 C 1447.275 2295.786, 1462.350 2287.012, 1469.500 2282.997 C 1476.650 2278.983, 1484.412 2274.623, 1486.750 2273.307 C 1489.088 2271.992, 1491 2270.359, 1491 2269.679 C 1491 2268.999, 1488.462 2264.180, 1485.360 2258.971 C 1470.305 2233.686, 1452.257 2188.073, 1440.901 2146.607 C 1430.338 2108.037, 1426.607 2083.210, 1422.434 2023.750 L 1421.820 2015 1128.469 2015 C 927.919 2015, 834.916 2015.326, 834.480 2016.032 M 2578.553 2016.248 C 2578.340 2016.937, 2577.913 2024.250, 2577.604 2032.500 C 2575.994 2075.381, 2566.118 2128.037, 2550.970 2174.500 C 2538.423 2212.989, 2521.885 2253.240, 2513.605 2265.440 C 2512.188 2267.528, 2511.239 2269.578, 2511.496 2269.994 C 2511.989 2270.792, 2533.612 2283.909, 2558 2298.205 C 2565.975 2302.879, 2577.900 2309.877, 2584.500 2313.755 C 2611.768 2329.776, 2651.676 2352.929, 2662.706 2359.127 C 2669.193 2362.772, 2683.500 2371.050, 2694.500 2377.522 C 2705.500 2383.995, 2721.700 2393.330, 2730.500 2398.267 C 2745.423 2406.639, 2763.134 2417.002, 2801 2439.519 C 2809.525 2444.589, 2821.450 2451.560, 2827.500 2455.012 C 2833.550 2458.463, 2844.575 2464.898, 2852 2469.312 C 2859.425 2473.725, 2869.775 2479.566, 2875 2482.291 C 2880.225 2485.016, 2891.025 2491.166, 2899 2495.957 C 2911.693 2503.583, 2933.050 2516.022, 2979 2542.554 C 2985.875 2546.523, 2993.965 2551.398, 2996.977 2553.386 C 3003.213 2557.501, 3004.094 2557.678, 3006.227 2555.250 C 3009.143 2551.929, 3025.375 2523.443, 3035.547 2503.794 C 3062.096 2452.513, 3082.680 2405.101, 3102.987 2348.459 C 3111.658 2324.274, 3124.262 2282.244, 3130.415 2257 C 3141.146 2212.972, 3141.744 2210.275, 3147.499 2180 C 3150.459 2164.430, 3158.052 2114.135, 3159.487 2100.594 C 3163.240 2065.181, 3163.958 2057.314, 3165.058 2039.500 C 3165.704 2029.050, 3166.292 2019.375, 3166.366 2018 L 3166.500 2015.500 2872.719 2015.248 C 2638.181 2015.047, 2578.861 2015.249, 2578.553 2016.248 M 2272.908 2175.180 C 2270.121 2180.643, 2259.282 2197.267, 2252.234 2206.887 C 2244.324 2217.685, 2224.347 2237.278, 2211.589 2246.750 C 2205.616 2251.186, 2195.839 2257.613, 2189.864 2261.033 C 2183.889 2264.453, 2179 2267.879, 2179 2268.645 C 2179 2269.412, 2180.075 2271.742, 2181.389 2273.823 C 2182.702 2275.904, 2190.185 2289.058, 2198.016 2303.054 C 2205.848 2317.049, 2214.836 2333, 2217.989 2338.500 C 2221.142 2344, 2226.558 2353.900, 2230.025 2360.500 C 2236.424 2372.685, 2245.270 2388.707, 2266.465 2426.500 C 2277.332 2445.877, 2284.200 2457.857, 2297.993 2481.500 C 2300.881 2486.450, 2307.173 2497.700, 2311.976 2506.500 C 2316.779 2515.300, 2326.461 2532.400, 2333.493 2544.500 C 2340.525 2556.600, 2355.713 2582.925, 2367.244 2603 C 2393.008 2647.853, 2406.860 2671.813, 2426.503 2705.500 C 2434.841 2719.800, 2450.814 2747.475, 2461.997 2767 C 2473.181 2786.525, 2487.835 2811.950, 2494.561 2823.500 C 2518.525 2864.649, 2523.781 2873.743, 2534.729 2893 C 2540.827 2903.725, 2553.345 2925.550, 2562.548 2941.500 C 2571.752 2957.450, 2580.042 2971.850, 2580.971 2973.500 C 2583.335 2977.698, 2585.603 2977.645, 2592.500 2973.229 C 2676.155 2919.664, 2723.767 2883.708, 2788.947 2824.877 C 2811.288 2804.712, 2849.503 2765.317, 2880.562 2730.432 C 2889.531 2720.360, 2922.431 2679.493, 2931.630 2667 C 2935.477 2661.775, 2944.343 2649.740, 2951.333 2640.255 C 2970.491 2614.259, 2988.585 2586.150, 2987.385 2584.249 C 2986.851 2583.402, 2983.508 2581.036, 2979.957 2578.991 C 2976.406 2576.946, 2959.775 2567.408, 2943 2557.796 C 2926.225 2548.183, 2899.225 2532.525, 2883 2523 C 2835.578 2495.161, 2825.893 2489.541, 2799.500 2474.545 C 2773.563 2459.808, 2745.238 2443.345, 2743.500 2441.997 C 2742.950 2441.571, 2724.275 2430.764, 2702 2417.983 C 2630.241 2376.807, 2615.991 2368.597, 2588 2352.295 C 2572.875 2343.486, 2552.400 2331.574, 2542.500 2325.823 C 2532.600 2320.072, 2517.975 2311.543, 2510 2306.869 C 2502.025 2302.196, 2491.675 2296.194, 2487 2293.531 C 2482.325 2290.869, 2469.950 2283.654, 2459.500 2277.498 C 2449.050 2271.342, 2431.950 2261.464, 2421.500 2255.548 C 2411.050 2249.631, 2400.025 2243.323, 2397 2241.530 C 2393.975 2239.737, 2378.900 2230.947, 2363.500 2221.997 C 2319.191 2196.244, 2313.085 2192.659, 2303 2186.470 C 2289.030 2177.896, 2276.968 2171, 2275.941 2171 C 2275.446 2171, 2274.081 2172.881, 2272.908 2175.180 M 1499.500 2302.174 C 1496.750 2303.914, 1490.225 2307.654, 1485 2310.484 C 1473.700 2316.605, 1449.467 2330.675, 1392 2364.483 C 1386.225 2367.880, 1365.075 2380.032, 1345 2391.486 C 1324.925 2402.941, 1288.475 2424.024, 1264 2438.336 C 1239.525 2452.649, 1212.300 2468.476, 1203.500 2473.507 C 1184.564 2484.334, 1163.373 2496.726, 1142 2509.471 C 1133.475 2514.554, 1119.075 2522.905, 1110 2528.028 C 1100.925 2533.151, 1083.825 2543.027, 1072 2549.974 C 1060.175 2556.921, 1042.081 2567.307, 1031.790 2573.053 C 1021.500 2578.799, 1013.063 2584.029, 1013.040 2584.677 C 1012.947 2587.401, 1024.963 2605.529, 1051.368 2642.500 C 1077.173 2678.631, 1087.480 2691.781, 1118.382 2728 C 1133.937 2746.231, 1135.242 2747.683, 1156.500 2770.381 C 1188.181 2804.208, 1234.825 2846.594, 1280.734 2883.274 C 1309.918 2906.591, 1331.339 2922.209, 1365 2944.711 C 1402.813 2969.988, 1415.954 2978.231, 1417.494 2977.641 C 1418.129 2977.397, 1422.495 2970.291, 1427.196 2961.849 C 1443.608 2932.381, 1452.687 2916.364, 1463.673 2897.500 C 1478.636 2871.805, 1507.022 2822.449, 1516.010 2806.500 C 1536.495 2770.149, 1542.230 2760.321, 1579.039 2698.500 C 1584.933 2688.600, 1592.797 2675.100, 1596.514 2668.500 C 1604.529 2654.270, 1616.129 2634.270, 1633.052 2605.500 C 1639.845 2593.950, 1651.124 2574.522, 1658.116 2562.326 C 1665.107 2550.130, 1676.989 2529.767, 1684.520 2517.075 C 1692.051 2504.383, 1697.969 2493.362, 1697.671 2492.584 C 1697.372 2491.807, 1688.662 2485.524, 1678.314 2478.622 C 1607.754 2431.560, 1555.812 2377.428, 1509.328 2302.511 C 1506.839 2298.501, 1505.384 2298.451, 1499.500 2302.174 M 1724.197 2511.331 C 1723.535 2513.163, 1717.890 2523.175, 1711.654 2533.581 C 1705.418 2543.986, 1697.244 2557.900, 1693.490 2564.500 C 1687.521 2574.995, 1675.335 2595.970, 1657.468 2626.500 C 1654.572 2631.450, 1648.039 2642.925, 1642.952 2652 C 1637.865 2661.075, 1632.032 2671.200, 1629.990 2674.500 C 1624.224 2683.815, 1611.121 2706.159, 1603.015 2720.500 C 1598.973 2727.650, 1591.831 2740.025, 1587.144 2748 C 1582.458 2755.975, 1574.285 2770.150, 1568.983 2779.500 C 1563.682 2788.850, 1553.944 2805.500, 1547.343 2816.500 C 1540.743 2827.500, 1529.142 2847.525, 1521.564 2861 C 1513.986 2874.475, 1505.419 2889.550, 1502.528 2894.500 C 1499.636 2899.450, 1488.611 2918.800, 1478.028 2937.500 C 1467.445 2956.200, 1455.914 2976.312, 1452.403 2982.194 C 1448.892 2988.076, 1446.255 2993.502, 1446.543 2994.253 C 1447.811 2997.557, 1547.807 3046.293, 1564 3051.499 C 1567.025 3052.471, 1573.775 3055.041, 1579 3057.210 C 1612.682 3071.191, 1658.828 3086.852, 1708.500 3101.158 C 1729.253 3107.135, 1760.362 3114.528, 1779.500 3118.032 C 1785 3119.038, 1797.825 3121.428, 1808 3123.342 C 1842.494 3129.831, 1883.336 3134.920, 1925.500 3137.983 C 1949.250 3139.709, 1982.930 3141.161, 1983.992 3140.505 C 1985.331 3139.677, 1985.398 2579.364, 1984.059 2578.536 C 1983.541 2578.217, 1976.904 2577.506, 1969.309 2576.957 C 1912.017 2572.817, 1877.201 2566.291, 1827.567 2550.387 C 1798.662 2541.124, 1771.557 2529.932, 1742.989 2515.461 C 1734.887 2511.358, 1727.615 2508, 1726.830 2508 C 1726.044 2508, 1724.860 2509.499, 1724.197 2511.331 M 2269 2510.131 C 2264.859 2512.692, 2236.251 2527.053, 2230.500 2529.457 C 2219.265 2534.153, 2183.966 2547.264, 2172.951 2550.832 C 2128.539 2565.218, 2080.076 2573.933, 2029.415 2576.641 C 2022.547 2577.008, 2016.711 2577.659, 2016.446 2578.087 C 2015.489 2579.635, 2016.005 3139.405, 2016.964 3140.364 C 2018.386 3141.786, 2081.802 3138.415, 2110.500 3135.392 C 2156.774 3130.517, 2174.817 3127.741, 2224 3117.928 C 2246.919 3113.355, 2260.557 3110.087, 2292.484 3101.514 C 2312.812 3096.056, 2369.788 3077.439, 2394.855 3068.065 C 2432.602 3053.948, 2458.900 3042.741, 2503 3021.979 C 2522.898 3012.611, 2551.918 2997.328, 2554.500 2994.856 C 2556.388 2993.049, 2556.409 2992.789, 2554.868 2990.221 C 2553.970 2988.724, 2550.114 2982.325, 2546.298 2976 C 2542.482 2969.675, 2534.259 2955.500, 2528.025 2944.500 C 2521.790 2933.500, 2505.588 2905.375, 2492.019 2882 C 2478.451 2858.625, 2460.240 2827.125, 2451.550 2812 C 2442.861 2796.875, 2431.002 2776.400, 2425.197 2766.500 C 2411.409 2742.985, 2396.086 2716.531, 2381.176 2690.500 C 2360.332 2654.109, 2357.479 2649.197, 2330.339 2603 C 2325.654 2595.025, 2316.379 2578.825, 2309.728 2567 C 2282.533 2518.650, 2276.444 2508.506, 2274.451 2508.233 C 2273.378 2508.086, 2270.925 2508.940, 2269 2510.131" stroke="none" fill="#f3f3f3" fill-rule="evenodd"/></svg>