<svg xmlns="http://www.w3.org/2000/svg" width="4000" height="4000" viewBox="0 0 4000 4000" version="1.1"><path d="M 1985.491 1030.500 C 1985.491 1144.350, 1985.607 1190.777, 1985.750 1133.670 C 1985.893 1076.564, 1985.893 983.414, 1985.750 926.670 C 1985.607 869.927, 1985.491 916.650, 1985.491 1030.500 M 2612.634 974.250 C 2611.286 976.587, 2606.168 985.700, 2601.260 994.500 C 2587.972 1018.329, 2569.186 1051.073, 2556.510 1072.500 C 2542.725 1095.804, 2518.485 1138.033, 2494.230 1181 C 2488.487 1191.175, 2478.516 1208.275, 2472.074 1219 C 2465.631 1229.725, 2455.465 1247.050, 2449.482 1257.500 C 2420.781 1307.629, 2404.336 1336.154, 2393.848 1354 C 2387.545 1364.725, 2377.723 1381.825, 2372.020 1392 C 2366.318 1402.175, 2355.498 1420.850, 2347.976 1433.500 C 2340.454 1446.150, 2331.239 1461.900, 2327.499 1468.500 C 2323.758 1475.100, 2317.654 1485.675, 2313.934 1492 C 2306.693 1504.311, 2303.627 1511.004, 2304.165 1513.326 C 2304.349 1514.120, 2311.475 1519.400, 2320 1525.058 C 2351.478 1545.949, 2387.376 1575.250, 2409.513 1598.122 C 2432.095 1621.452, 2463.943 1661.628, 2481.051 1688.367 C 2486.823 1697.387, 2491.039 1703, 2492.043 1703 C 2492.938 1703, 2499.258 1699.655, 2506.085 1695.566 C 2530.466 1680.968, 2576.132 1654.410, 2585.732 1649.247 C 2591.105 1646.358, 2603.375 1639.152, 2613 1633.233 C 2622.625 1627.315, 2637.025 1618.688, 2645 1614.062 C 2652.975 1609.436, 2664.675 1602.647, 2671 1598.974 C 2677.325 1595.302, 2686.374 1590.216, 2691.109 1587.673 C 2695.844 1585.130, 2700.691 1582.251, 2701.881 1581.275 C 2703.999 1579.538, 2704.007 1579.430, 2702.273 1576.253 C 2698.827 1569.941, 2676.526 1538.235, 2631.056 1475 C 2593.162 1422.301, 2582.998 1408.373, 2562.750 1381.400 C 2560.137 1377.920, 2558 1374.770, 2558 1374.401 C 2558 1373.524, 2668.088 1375.453, 2763 1377.993 C 2783.625 1378.545, 2819.850 1379.445, 2843.500 1379.994 C 2867.150 1380.543, 2905.400 1381.444, 2928.500 1381.996 C 3013.492 1384.028, 3007.063 1383.999, 3007.697 1382.347 C 3008.767 1379.560, 2994.400 1354.165, 2971.067 1317.597 C 2950.583 1285.493, 2947.293 1280.925, 2916.622 1242 C 2881.843 1197.860, 2878.632 1194.077, 2849.576 1163 C 2832.993 1145.264, 2791.967 1104.986, 2773.625 1088.435 C 2730.583 1049.594, 2695.527 1022.228, 2643.484 986.845 C 2625.458 974.589, 2618.026 970, 2616.204 970 C 2615.588 970, 2613.982 971.913, 2612.634 974.250 M 1171.388 1141.282 C 1150.657 1162.386, 1124.208 1191.326, 1113.610 1204.500 L 1108.784 1210.500 1113.642 1205.040 C 1116.314 1202.036, 1125.700 1191.472, 1134.500 1181.563 C 1143.300 1171.654, 1160.350 1153.524, 1172.388 1141.273 C 1184.426 1129.023, 1194.051 1119, 1193.776 1119 C 1193.501 1119, 1183.426 1129.027, 1171.388 1141.282 M 1985.479 1328 C 1985.479 1376.675, 1985.601 1396.588, 1985.750 1372.250 C 1985.899 1347.912, 1985.899 1308.088, 1985.750 1283.750 C 1985.601 1259.412, 1985.479 1279.325, 1985.479 1328 M 2015.462 1377.500 C 2015.461 1403.350, 2015.591 1414.068, 2015.749 1401.319 C 2015.907 1388.569, 2015.907 1367.419, 2015.749 1354.319 C 2015.591 1341.218, 2015.462 1351.650, 2015.462 1377.500 M 2621.818 1405.516 C 2620.758 1406.575, 2622.015 1409.108, 2626.026 1414 C 2630.207 1419.098, 2650.530 1447.096, 2662.424 1464.143 C 2666.782 1470.389, 2675.782 1483.111, 2682.424 1492.413 C 2719.074 1543.741, 2734.254 1566.365, 2741.866 1581 C 2747.123 1591.106, 2756.068 1612.367, 2767.320 1641.500 C 2776.443 1665.119, 2795.865 1716.274, 2801.490 1731.500 C 2808.750 1751.147, 2810.931 1756, 2812.501 1756 C 2813.123 1756, 2814.635 1753.581, 2815.860 1750.623 C 2817.086 1747.666, 2820.446 1741.254, 2823.328 1736.373 C 2826.209 1731.493, 2830.974 1722.775, 2833.917 1717 C 2840.760 1703.573, 2856.181 1675.359, 2876.003 1640 C 2878.316 1635.875, 2883.911 1625.750, 2888.437 1617.500 C 2897.511 1600.961, 2901.363 1594.025, 2903.987 1589.500 C 2904.943 1587.850, 2907.886 1582.450, 2910.527 1577.500 C 2915.448 1568.274, 2915.985 1567.293, 2925.027 1551 C 2927.926 1545.775, 2932.550 1537.225, 2935.302 1532 C 2938.054 1526.775, 2942.629 1518.675, 2945.469 1514 C 2948.309 1509.325, 2953.490 1500.100, 2956.982 1493.500 C 2960.474 1486.900, 2964.085 1480.150, 2965.005 1478.500 C 2968.043 1473.055, 2985.287 1441.711, 2991.688 1430 C 2995.145 1423.675, 2997.980 1417.713, 2997.987 1416.750 C 2997.998 1415.271, 2997.032 1414.997, 2991.750 1414.978 C 2988.313 1414.966, 2976.275 1414.524, 2965 1413.996 C 2953.725 1413.469, 2907.150 1412.139, 2861.500 1411.041 C 2815.850 1409.943, 2761.850 1408.595, 2741.500 1408.046 C 2721.150 1407.496, 2689.425 1406.801, 2671 1406.501 C 2652.575 1406.202, 2634.124 1405.704, 2629.999 1405.396 C 2625.873 1405.088, 2622.192 1405.142, 2621.818 1405.516 M 841.201 1963.250 C 841.091 1975.213, 841.337 1985.001, 841.750 1985.002 C 842.163 1985.003, 842.383 1978.590, 842.241 1970.752 C 841.755 1944.019, 841.403 1941.477, 841.201 1963.250 M 909.750 1984.750 C 930.788 1984.900, 965.213 1984.900, 986.250 1984.750 C 1007.288 1984.599, 990.075 1984.476, 948 1984.476 C 905.925 1984.476, 888.712 1984.599, 909.750 1984.750 M 1050.250 1984.746 C 1056.162 1984.923, 1065.838 1984.923, 1071.750 1984.746 C 1077.662 1984.569, 1072.825 1984.425, 1061 1984.425 C 1049.175 1984.425, 1044.338 1984.569, 1050.250 1984.746 M 1199.750 1984.748 C 1208.688 1984.914, 1223.313 1984.914, 1232.250 1984.748 C 1241.188 1984.582, 1233.875 1984.447, 1216 1984.447 C 1198.125 1984.447, 1190.813 1984.582, 1199.750 1984.748 M 1350.318 1984.749 C 1362.868 1984.908, 1383.118 1984.908, 1395.318 1984.749 C 1407.518 1984.590, 1397.250 1984.460, 1372.500 1984.460 C 1347.750 1984.460, 1337.768 1984.590, 1350.318 1984.749 M 2777.250 1984.749 C 2791.412 1984.906, 2814.588 1984.906, 2828.750 1984.749 C 2842.912 1984.593, 2831.325 1984.465, 2803 1984.465 C 2774.675 1984.465, 2763.088 1984.593, 2777.250 1984.749 M 2956.308 1984.748 C 2963.353 1984.920, 2974.603 1984.919, 2981.308 1984.747 C 2988.014 1984.574, 2982.250 1984.433, 2968.500 1984.434 C 2954.750 1984.434, 2949.264 1984.576, 2956.308 1984.748 M 3094.250 1984.749 C 3104.563 1984.911, 3121.438 1984.911, 3131.750 1984.749 C 3142.063 1984.586, 3133.625 1984.453, 3113 1984.453 C 3092.375 1984.453, 3083.938 1984.586, 3094.250 1984.749 M 1134.431 2015.749 C 1410.930 2015.990, 1425.883 2016.093, 1426.279 2017.752 C 1426.596 2019.080, 1426.673 2019.019, 1426.598 2017.500 C 1426.500 2015.505, 1425.800 2015.500, 1134.750 2015.497 L 843 2015.495 1134.431 2015.749 M 2688.500 2015.745 C 2966.743 2016.425, 3159.764 2016.427, 3159.346 2015.750 C 3159.091 2015.338, 3029.646 2015.110, 2871.691 2015.245 C 2713.736 2015.380, 2631.300 2015.605, 2688.500 2015.745 M 2251.934 2202.750 C 2247.890 2208.113, 2238.280 2218.800, 2230.577 2226.500 C 2222.875 2234.200, 2219.269 2238.179, 2222.565 2235.343 C 2233.329 2226.079, 2246.430 2211.586, 2257.452 2196.750 C 2258.984 2194.688, 2260.023 2193, 2259.762 2193 C 2259.501 2193, 2255.978 2197.387, 2251.934 2202.750 M 2015.459 2573.250 C 2015.197 2573.938, 2015.102 2602.625, 2015.248 2637 L 2015.515 2699.500 2015.758 2636.296 L 2016 2573.091 2022.750 2572.742 L 2029.500 2572.392 2022.719 2572.196 C 2018.062 2572.061, 2015.787 2572.392, 2015.459 2573.250 M 1985.430 2603 C 1985.430 2615.925, 1985.573 2621.213, 1985.747 2614.750 C 1985.921 2608.287, 1985.921 2597.713, 1985.747 2591.250 C 1985.573 2584.787, 1985.430 2590.075, 1985.430 2603 M 2015.488 2969.500 C 2015.488 3058.600, 2015.606 3094.902, 2015.750 3050.171 C 2015.894 3005.440, 2015.894 2932.540, 2015.750 2888.171 C 2015.606 2843.802, 2015.488 2880.400, 2015.488 2969.500" stroke="none" fill="#2373ec" fill-rule="evenodd"/><path d="M 2016.476 793.216 C 2016.208 793.922, 2016.103 936.700, 2016.244 1110.500 L 2016.500 1426.500 2023 1426.747 C 2049.272 1427.744, 2083.436 1431.895, 2111.588 1437.512 C 2162.239 1447.617, 2227.234 1470.557, 2263.273 1491.047 C 2268.191 1493.843, 2272.843 1495.890, 2273.610 1495.596 C 2275.681 1494.802, 2286.537 1477.776, 2297.266 1458.500 C 2302.469 1449.150, 2311.430 1433.400, 2317.177 1423.500 C 2322.925 1413.600, 2330.816 1399.875, 2334.713 1393 C 2338.610 1386.125, 2346.390 1372.625, 2352.002 1363 C 2366.446 1338.229, 2392.142 1293.580, 2399.771 1280 C 2403.324 1273.675, 2406.569 1268.050, 2406.983 1267.500 C 2407.397 1266.950, 2409.202 1263.800, 2410.996 1260.500 C 2414.722 1253.642, 2424.732 1236.436, 2436.010 1217.500 C 2440.269 1210.350, 2450.713 1192.350, 2459.218 1177.500 C 2467.724 1162.650, 2478.863 1143.300, 2483.971 1134.500 C 2489.080 1125.700, 2494.402 1116.475, 2495.799 1114 C 2497.196 1111.525, 2501.264 1104.550, 2504.839 1098.500 C 2508.415 1092.450, 2516.145 1079.175, 2522.017 1069 C 2527.889 1058.825, 2539.444 1038.800, 2547.695 1024.500 C 2555.946 1010.200, 2565.491 993.833, 2568.907 988.129 C 2576.262 975.844, 2588 954.246, 2588 952.996 C 2588 952.031, 2556.222 933.755, 2538 924.242 C 2495.371 901.985, 2471.784 891.043, 2433.505 875.766 C 2389.389 858.159, 2377.355 853.893, 2342.500 843.507 C 2332.050 840.393, 2320.125 836.781, 2316 835.480 C 2271.058 821.309, 2177.278 803.567, 2118 798.020 C 2111.125 797.376, 2101.450 796.447, 2096.500 795.954 C 2087.800 795.088, 2062.327 793.737, 2031.732 792.519 C 2020.198 792.060, 2016.857 792.213, 2016.476 793.216 M 1938 793.686 C 1928.871 794.037, 1875.410 798.649, 1865 799.983 C 1860.875 800.512, 1853.450 801.437, 1848.500 802.040 C 1835.562 803.616, 1799.470 809.600, 1778.500 813.645 C 1749.186 819.299, 1694.523 832.264, 1686 835.584 C 1684.075 836.334, 1675.525 838.965, 1667 841.432 C 1629.922 852.162, 1565.454 875.894, 1531.500 891.313 C 1500.777 905.265, 1458.671 926.647, 1436 939.809 C 1430.775 942.843, 1424.028 946.732, 1421.006 948.452 C 1417.984 950.172, 1415.386 952.236, 1415.232 953.039 C 1414.808 955.255, 1444.915 1008.787, 1472.226 1054.377 C 1480.463 1068.128, 1494.637 1092.456, 1503.724 1108.439 C 1512.810 1124.423, 1527.113 1149.425, 1535.508 1164 C 1543.903 1178.575, 1555.254 1198.375, 1560.732 1208 C 1576.354 1235.449, 1590.170 1259.406, 1591.010 1260.500 C 1592.780 1262.805, 1621.044 1311.719, 1645.039 1354 C 1652.374 1366.925, 1665.546 1389.425, 1674.311 1404 C 1696.902 1441.567, 1708.408 1461.198, 1718.272 1479 C 1730.116 1500.377, 1728.339 1498.835, 1735.500 1493.950 C 1757.433 1478.988, 1820.828 1454.446, 1866.686 1443.164 C 1904.369 1433.894, 1921.238 1431.366, 1968.750 1427.869 L 1985 1426.673 1985 1109.837 L 1985 793 1965.250 793.199 C 1954.388 793.308, 1942.125 793.527, 1938 793.686 M 1373 977.702 C 1366.675 981.908, 1353.515 990.658, 1343.755 997.148 C 1317.500 1014.604, 1285.904 1038.697, 1251.777 1067.285 C 1208.417 1103.606, 1148.323 1163.854, 1111.919 1207.500 C 1068.661 1259.366, 1039.336 1300.612, 1006.746 1355.428 C 997.894 1370.317, 988.945 1385.371, 986.860 1388.880 C 983.998 1393.696, 983.299 1395.691, 984.009 1397.017 C 985.147 1399.144, 998.203 1407.177, 1023 1421.008 C 1033.175 1426.684, 1049.825 1436.346, 1060 1442.479 C 1070.175 1448.613, 1085.250 1457.482, 1093.500 1462.190 C 1101.750 1466.897, 1124.925 1480.105, 1145 1491.540 C 1165.075 1502.975, 1192.525 1518.858, 1206 1526.836 C 1240.318 1547.153, 1260.431 1558.833, 1328 1597.687 C 1363.010 1617.818, 1375.178 1624.914, 1410.500 1645.798 C 1433.137 1659.183, 1453.380 1670.888, 1476.500 1683.964 C 1487.500 1690.185, 1499.072 1697.067, 1502.215 1699.258 C 1505.358 1701.449, 1508.508 1703.010, 1509.215 1702.729 C 1509.922 1702.447, 1514.024 1696.543, 1518.331 1689.608 C 1541.042 1653.040, 1585.678 1601.113, 1619.523 1571.884 C 1647.241 1547.948, 1686.413 1519.068, 1697.375 1514.488 C 1699.369 1513.655, 1701 1512.719, 1701 1512.409 C 1701 1512.098, 1696.553 1504.567, 1691.119 1495.672 C 1685.684 1486.777, 1675.937 1470.275, 1669.459 1459 C 1662.982 1447.725, 1652.277 1429.275, 1645.672 1418 C 1639.067 1406.725, 1632.094 1394.800, 1630.178 1391.500 C 1628.262 1388.200, 1622.555 1378.525, 1617.498 1370 C 1612.440 1361.475, 1598.385 1337.175, 1586.264 1316 C 1574.144 1294.825, 1555.127 1261.975, 1544.005 1243 C 1532.883 1224.025, 1518.156 1198.600, 1511.278 1186.500 C 1504.400 1174.400, 1495.722 1159.325, 1491.994 1153 C 1488.266 1146.675, 1477.597 1128.225, 1468.285 1112 C 1444.713 1070.928, 1425.484 1037.572, 1413.519 1017 C 1407.921 1007.375, 1399.827 993.200, 1395.531 985.500 C 1388.461 972.828, 1386.538 970.006, 1385 970.043 C 1384.725 970.049, 1379.325 973.496, 1373 977.702 M 966.194 1429.250 C 965.110 1431.037, 962.765 1435.875, 960.982 1440 C 959.198 1444.125, 956.052 1450.875, 953.990 1455 C 946.835 1469.316, 922.574 1527.262, 912.944 1553.039 C 882.945 1633.338, 857.086 1746.735, 848.531 1835.500 C 844.041 1882.086, 841.478 1935.873, 842.175 1968.894 L 842.500 1984.289 1133.849 1984.394 C 1406.032 1984.493, 1425.257 1984.389, 1426.099 1982.816 C 1426.594 1981.889, 1427 1978.677, 1427 1975.678 C 1427 1965.471, 1431.091 1921.621, 1433.502 1905.987 C 1438.831 1871.429, 1449.016 1834.402, 1463.129 1798.274 C 1470.288 1779.948, 1485.433 1747.078, 1490.501 1738.867 C 1492.425 1735.750, 1494 1732.488, 1494 1731.620 C 1494 1730.751, 1492.239 1729.142, 1490.086 1728.044 C 1487.933 1726.945, 1472.070 1717.564, 1454.836 1707.197 C 1425.462 1689.527, 1413.289 1682.389, 1373.500 1659.502 C 1350.942 1646.526, 1333.360 1636.324, 1320 1628.458 C 1309.621 1622.346, 1290.542 1611.363, 1258 1592.767 C 1251.675 1589.153, 1240.875 1582.922, 1234 1578.922 C 1214.361 1567.494, 1150.108 1530.661, 1133 1521.024 C 1124.475 1516.221, 1099.950 1501.951, 1078.500 1489.311 C 1057.050 1476.671, 1031.850 1461.895, 1022.500 1456.475 C 1013.150 1451.054, 997.762 1441.980, 988.305 1436.310 C 978.848 1430.639, 970.447 1426, 969.637 1426 C 968.826 1426, 967.277 1427.463, 966.194 1429.250 M 3025.217 1435.250 C 3022.501 1440.338, 3018.121 1448.325, 3015.483 1453 C 3012.844 1457.675, 3006.101 1470.050, 3000.498 1480.500 C 2994.894 1490.950, 2984.680 1509.625, 2977.800 1522 C 2970.920 1534.375, 2957.960 1558, 2949.001 1574.500 C 2940.041 1591, 2924.057 1620.250, 2913.481 1639.500 C 2849.473 1756.005, 2855.206 1745.469, 2825.189 1801.782 C 2816.898 1817.337, 2809.847 1830.908, 2809.519 1831.940 C 2808.852 1834.042, 2806.045 1835.482, 2804.954 1834.283 C 2804.562 1833.852, 2803.685 1831.700, 2803.004 1829.500 C 2802.323 1827.300, 2792.769 1801.425, 2781.774 1772 C 2770.779 1742.575, 2758.871 1710.400, 2755.312 1700.500 C 2751.753 1690.600, 2746.148 1675.525, 2742.857 1667 C 2739.565 1658.475, 2734.617 1645.650, 2731.862 1638.500 C 2719.220 1605.697, 2719.339 1605.920, 2715.637 1608.281 C 2714.462 1609.031, 2706.750 1613.601, 2698.500 1618.437 C 2690.250 1623.273, 2680.125 1629.274, 2676 1631.772 C 2671.875 1634.271, 2655 1644.167, 2638.500 1653.765 C 2600.009 1676.153, 2574.250 1691.271, 2540 1711.574 C 2524.875 1720.540, 2511.747 1728.163, 2510.827 1728.515 C 2508.014 1729.591, 2507.987 1731.684, 2510.722 1736.698 C 2533.798 1778.999, 2557.389 1846.629, 2566.466 1896.500 C 2569.962 1915.706, 2574.995 1961.279, 2574.998 1973.750 C 2575 1982.781, 2575.208 1984.020, 2576.750 1984.166 C 2577.713 1984.258, 2709.408 1984.370, 2869.407 1984.416 L 3160.313 1984.500 3159.642 1949.254 C 3158.315 1879.590, 3152.437 1811.533, 3143.381 1761 C 3138.717 1734.974, 3129.643 1692.477, 3124.459 1672.381 C 3104.497 1594.998, 3088.868 1547.562, 3066.675 1497 C 3050.681 1460.561, 3033.582 1426, 3031.550 1426 C 3030.782 1426, 3027.932 1430.162, 3025.217 1435.250 M 2575.417 2015.917 C 2575.187 2016.146, 2574.996 2019.971, 2574.991 2024.417 C 2574.974 2040.476, 2570.879 2077.437, 2566.431 2101.667 C 2556.321 2156.748, 2532.824 2225.215, 2512.392 2259.131 C 2510.526 2262.228, 2509 2265.718, 2509 2266.887 C 2509 2269.527, 2514.609 2273.191, 2547.311 2291.914 C 2560.615 2299.531, 2579.150 2310.371, 2588.500 2316.002 C 2605.723 2326.375, 2626.438 2338.354, 2655.500 2354.746 C 2673.340 2364.808, 2695.715 2377.739, 2731.500 2398.668 C 2776.405 2424.931, 2798.454 2437.699, 2840 2461.498 C 2876.226 2482.249, 2909.663 2501.679, 2951 2525.999 C 2977.488 2541.582, 2994.238 2551.022, 2996.340 2551.549 C 2999.230 2552.275, 3002.854 2546.679, 3021.957 2512 C 3028.815 2499.550, 3057.423 2441.335, 3062.991 2428.500 C 3080.855 2387.322, 3101.775 2329.667, 3113.600 2289.029 C 3126.096 2246.081, 3139.765 2185.314, 3147.008 2140.500 C 3151.052 2115.482, 3155.510 2075.951, 3157.439 2048 C 3158.294 2035.625, 3159.168 2023.554, 3159.382 2021.175 C 3159.620 2018.528, 3159.331 2016.686, 3158.636 2016.428 C 3157.156 2015.880, 2575.963 2015.370, 2575.417 2015.917 M 843.453 2029.250 C 843.825 2036.537, 844.552 2047.225, 845.070 2053 C 849.956 2107.561, 850.772 2114.619, 855.592 2144 C 861.249 2178.478, 865.481 2199.680, 872.870 2230.558 C 882.169 2269.413, 887.353 2287.656, 900.702 2328.500 C 907.641 2349.733, 931.446 2411.717, 938.635 2427.272 C 942.136 2434.847, 945 2441.263, 945 2441.530 C 945 2441.796, 952.857 2457.874, 962.459 2477.257 C 980.846 2514.371, 1001.004 2551.863, 1003.248 2553.119 C 1004.069 2553.579, 1008.197 2551.650, 1014.039 2548.076 C 1047.844 2527.399, 1118.880 2485.781, 1202 2437.956 C 1227.533 2423.265, 1238.325 2416.953, 1239.500 2416.023 C 1240.050 2415.588, 1255.800 2406.471, 1274.500 2395.763 C 1318.271 2370.699, 1363.555 2344.586, 1382.216 2333.650 C 1390.310 2328.907, 1408.085 2318.659, 1421.716 2310.876 C 1473.122 2281.524, 1494.001 2269.032, 1493.996 2267.629 C 1493.994 2267.008, 1493.043 2264.943, 1491.883 2263.039 C 1487.781 2256.311, 1474.143 2228.338, 1469.002 2216.108 C 1444.835 2158.620, 1430.813 2097.592, 1427.507 2035.500 C 1427.184 2029.450, 1426.686 2022.588, 1426.399 2020.250 L 1425.877 2016 1134.327 2016 L 842.777 2016 843.453 2029.250 M 2273.715 2173.250 C 2272.402 2175.037, 2268.265 2181, 2264.520 2186.500 C 2245.046 2215.104, 2226.970 2233.817, 2201.500 2251.740 C 2196 2255.611, 2188.463 2260.444, 2184.750 2262.481 C 2181.037 2264.517, 2178 2266.602, 2178 2267.114 C 2178 2268.918, 2186.089 2284.099, 2195.633 2300.206 C 2206.637 2318.777, 2218.191 2339.232, 2234.774 2369.500 C 2247.668 2393.035, 2264.399 2422.578, 2285.459 2459 C 2293.250 2472.475, 2304.387 2492.050, 2310.208 2502.500 C 2316.028 2512.950, 2325.387 2529.375, 2331.006 2539 C 2336.625 2548.625, 2344.929 2563.025, 2349.459 2571 C 2368.668 2604.817, 2385.790 2634.394, 2393.502 2647.084 C 2398.043 2654.555, 2405.706 2667.605, 2410.531 2676.084 C 2450.772 2746.803, 2465.816 2773.031, 2475.296 2788.999 C 2493.977 2820.465, 2506.762 2842.594, 2519.736 2865.921 C 2544.517 2910.476, 2579.871 2970, 2581.553 2970 C 2583.389 2970, 2634.952 2936.924, 2659.500 2920 C 2682.431 2904.190, 2729.087 2868.080, 2744.020 2854.585 C 2746.506 2852.338, 2752.334 2847.125, 2756.971 2843 C 2800.595 2804.194, 2827.667 2777.404, 2866.111 2735 C 2890.410 2708.198, 2934.664 2650.685, 2956.137 2618 C 2959.209 2613.325, 2966.126 2602.775, 2971.509 2594.556 L 2981.297 2579.611 2978.197 2577.056 C 2976.492 2575.650, 2968.888 2571.166, 2961.299 2567.091 C 2953.709 2563.017, 2940.975 2555.857, 2933 2551.181 C 2908.344 2536.725, 2890.654 2526.463, 2859.500 2508.542 C 2821.344 2486.594, 2823.356 2487.758, 2811 2480.491 C 2805.225 2477.094, 2797.350 2472.604, 2793.500 2470.511 C 2789.650 2468.419, 2780.200 2463.013, 2772.500 2458.499 C 2764.800 2453.984, 2752.875 2447.019, 2746 2443.021 C 2739.125 2439.024, 2722.700 2429.438, 2709.500 2421.720 C 2696.300 2414.003, 2681 2405.117, 2675.500 2401.975 C 2670 2398.832, 2656.050 2390.864, 2644.500 2384.268 C 2632.950 2377.672, 2610.450 2364.656, 2594.500 2355.344 C 2566.719 2339.123, 2535.247 2320.874, 2515 2309.246 C 2509.775 2306.245, 2498.075 2299.526, 2489 2294.316 C 2479.925 2289.105, 2466.200 2281.126, 2458.500 2276.586 C 2450.800 2272.045, 2441.350 2266.607, 2437.500 2264.500 C 2430.040 2260.417, 2358.185 2218.297, 2356.500 2217.019 C 2355.950 2216.602, 2346.500 2211.076, 2335.500 2204.740 C 2324.500 2198.403, 2306.758 2187.995, 2296.074 2181.609 C 2285.390 2175.224, 2276.526 2170, 2276.375 2170 C 2276.225 2170, 2275.028 2171.463, 2273.715 2173.250 M 1506.535 2296.943 C 1505.872 2298.017, 1490.144 2307.351, 1466 2321 C 1442.641 2334.205, 1427.413 2343.042, 1413 2351.756 C 1406.125 2355.913, 1396 2361.885, 1390.500 2365.028 C 1385 2368.171, 1375.100 2373.877, 1368.500 2377.707 C 1361.900 2381.537, 1342.775 2392.572, 1326 2402.228 C 1309.225 2411.885, 1291.424 2422.196, 1286.443 2425.143 C 1266.698 2436.822, 1234.857 2455.276, 1178 2487.994 C 1160.125 2498.280, 1138.300 2510.887, 1129.500 2516.010 C 1120.700 2521.133, 1108.550 2528.104, 1102.500 2531.502 C 1090.683 2538.139, 1079.486 2544.634, 1046.500 2563.987 C 1020.086 2579.484, 1022 2578.246, 1022 2579.831 C 1022 2581.772, 1067.316 2648.894, 1079.838 2665.500 C 1097.368 2688.749, 1123.826 2721.518, 1139.181 2739 C 1187.600 2794.125, 1249.664 2851.386, 1309 2895.678 C 1337.844 2917.209, 1418.615 2970.929, 1422.233 2970.988 C 1422.636 2970.995, 1424.163 2968.637, 1425.625 2965.750 C 1432.501 2952.176, 1464.103 2896.425, 1484.436 2862 C 1493.874 2846.023, 1514.612 2809.792, 1534.522 2774.500 C 1537.935 2768.450, 1545.809 2754.725, 1552.021 2744 C 1558.233 2733.275, 1567.574 2717.075, 1572.780 2708 C 1577.987 2698.925, 1584.395 2687.900, 1587.022 2683.500 C 1589.649 2679.100, 1594.837 2670.100, 1598.551 2663.500 C 1614.082 2635.905, 1616.910 2630.963, 1623.442 2620 C 1627.210 2613.675, 1633.333 2603.550, 1637.048 2597.500 C 1640.763 2591.450, 1648.052 2579.075, 1653.245 2570 C 1676.690 2529.035, 1684.009 2516.642, 1695.765 2498 L 1701.125 2489.500 1698.312 2487.272 C 1696.766 2486.047, 1686.275 2478.619, 1675 2470.766 C 1652.122 2454.831, 1639.957 2445.434, 1623 2430.596 C 1583.325 2395.880, 1543.876 2350.585, 1519.277 2311.500 C 1509.520 2295.998, 1508.113 2294.390, 1506.535 2296.943 M 1723.717 2512.250 C 1721.301 2516.787, 1715.511 2527.025, 1710.849 2535 C 1706.188 2542.975, 1695.609 2561.200, 1687.340 2575.500 C 1679.071 2589.800, 1666.205 2611.896, 1658.748 2624.603 C 1651.291 2637.310, 1644.183 2649.685, 1642.951 2652.103 C 1640.337 2657.236, 1625.485 2682.789, 1620.052 2691.500 C 1617.995 2694.800, 1612.708 2703.800, 1608.304 2711.500 C 1603.900 2719.200, 1594.078 2736.300, 1586.478 2749.500 C 1578.878 2762.700, 1567.875 2781.825, 1562.026 2792 C 1556.178 2802.175, 1547.657 2816.800, 1543.092 2824.500 C 1538.526 2832.200, 1527.910 2850.650, 1519.501 2865.500 C 1496.104 2906.815, 1459.579 2970.082, 1451.724 2982.901 L 1449.640 2986.301 1452.430 2988.526 C 1456.361 2991.660, 1511.555 3019.546, 1531.703 3028.577 C 1586.372 3053.082, 1620.655 3065.781, 1693 3088.324 C 1715.894 3095.458, 1763.232 3106.997, 1788 3111.481 C 1825.616 3118.291, 1836.550 3120.128, 1850 3121.898 C 1858.525 3123.020, 1868.425 3124.207, 1872 3124.536 C 1875.575 3124.864, 1886.375 3126.008, 1896 3127.077 C 1911.191 3128.764, 1984.029 3133.304, 1984.726 3132.607 C 1984.900 3132.433, 1985.175 2593.798, 1985.010 2574.250 C 1985.003 2573.397, 1983.174 2572.998, 1979.250 2572.994 C 1968.659 2572.982, 1937.488 2570.064, 1920.409 2567.485 C 1869.838 2559.848, 1835.182 2550.406, 1784.451 2530.441 C 1770.497 2524.950, 1741.684 2511.289, 1734.975 2506.984 C 1732.417 2505.343, 1729.826 2504, 1729.217 2504 C 1728.608 2504, 1726.133 2507.713, 1723.717 2512.250 M 2268.473 2507.333 C 2265.180 2509.558, 2226.491 2527.933, 2220.810 2529.971 C 2217.890 2531.018, 2208.975 2534.394, 2201 2537.474 C 2177.813 2546.427, 2135.733 2558.010, 2107 2563.349 C 2081.446 2568.097, 2065.076 2570.074, 2034.250 2572.135 L 2016 2573.355 2016 2853.325 L 2016 3133.294 2027.750 3132.685 C 2053.680 3131.339, 2102.930 3127.942, 2109.733 3127.029 C 2113.712 3126.496, 2122.037 3125.565, 2128.233 3124.961 C 2149.596 3122.878, 2197.480 3115.579, 2219 3111.124 C 2248.061 3105.108, 2293.036 3093.934, 2310.500 3088.390 C 2397.296 3060.838, 2444.927 3042.032, 2509.203 3009.934 C 2538.956 2995.077, 2551 2988.248, 2551 2986.237 C 2551 2985.477, 2548.473 2980.501, 2545.385 2975.178 C 2542.297 2969.855, 2534.593 2956.275, 2528.265 2945 C 2521.937 2933.725, 2513.052 2918.200, 2508.520 2910.500 C 2497.426 2891.650, 2487.129 2873.993, 2482.278 2865.500 C 2473.585 2850.283, 2443.340 2797.850, 2436.995 2787 C 2415.197 2749.724, 2403.921 2730.241, 2398.506 2720.500 C 2388.578 2702.641, 2365.077 2661.931, 2343.666 2625.500 C 2322.646 2589.736, 2317.949 2581.550, 2301.884 2552.685 C 2290.359 2531.977, 2277.489 2510.264, 2275.249 2507.750 C 2273.386 2505.659, 2271.154 2505.521, 2268.473 2507.333" stroke="none" fill="#f3f3f3" fill-rule="evenodd"/><path d="M -0 2000 L -0 4000 2000.250 3999.750 L 4000.500 3999.500 4000.750 1999.750 L 4001 -0 2000.500 -0 L 0 0 -0 2000 M 0.499 2000.500 C 0.499 3100.500, 0.612 3550.350, 0.750 3000.167 C 0.888 2449.984, 0.888 1549.984, 0.750 1000.167 C 0.612 450.350, 0.499 900.500, 0.499 2000.500 M 1938 793.110 C 1928.925 793.556, 1914.525 794.606, 1906 795.444 C 1897.475 796.282, 1885.100 797.435, 1878.500 798.006 C 1837.450 801.558, 1775.448 812.266, 1728 823.998 C 1716.725 826.786, 1704.575 829.761, 1701 830.610 C 1679.502 835.713, 1594.957 863.829, 1575 872.512 C 1571.975 873.828, 1563.875 877.125, 1557 879.839 C 1526.043 892.059, 1466.022 921.586, 1432.479 941.097 C 1417.517 949.800, 1415 951.610, 1415 953.665 C 1415 954.985, 1419.133 963.363, 1424.183 972.283 C 1453.718 1024.439, 1467.053 1047.482, 1473.787 1058 C 1475.723 1061.025, 1488.764 1083.525, 1502.766 1108 C 1516.768 1132.475, 1533.291 1161.275, 1539.483 1172 C 1545.675 1182.725, 1558.061 1204.325, 1567.007 1220 C 1575.954 1235.675, 1588.095 1256.600, 1593.987 1266.500 C 1604.007 1283.335, 1631.172 1330.487, 1641.228 1348.500 C 1651.387 1366.697, 1659.394 1380.351, 1680.520 1415.500 C 1701.969 1451.187, 1717.642 1478.404, 1724.024 1491.048 C 1725.702 1494.372, 1727.748 1497.350, 1728.571 1497.665 C 1729.396 1497.982, 1732.468 1496.645, 1735.429 1494.678 C 1756.987 1480.365, 1818.960 1455.922, 1861.053 1445.130 C 1897.444 1435.801, 1923.488 1431.632, 1961 1429.133 L 1985.500 1427.500 1985.690 1112 C 1985.795 938.475, 1985.634 795.487, 1985.332 794.250 C 1984.791 792.031, 1984.572 792.002, 1969.642 792.150 C 1961.314 792.232, 1947.075 792.664, 1938 793.110 M 2016.052 793.750 C 2016.081 794.712, 2015.969 937.325, 2015.802 1110.667 C 2015.636 1284.008, 2015.820 1426.153, 2016.210 1426.544 C 2016.601 1426.934, 2024.251 1427.627, 2033.210 1428.082 C 2082.216 1430.575, 2127.740 1439.455, 2180.509 1456.814 C 2212.941 1467.483, 2241.318 1479.378, 2262.313 1491.102 C 2271.158 1496.043, 2273.393 1496.918, 2274.599 1495.918 C 2277.149 1493.801, 2286.961 1478.145, 2296.795 1460.500 C 2307.494 1441.303, 2321.088 1417.626, 2347.317 1372.500 C 2357.228 1355.450, 2368.779 1335.425, 2372.988 1328 C 2380.064 1315.515, 2393.990 1291.194, 2406.485 1269.500 C 2409.336 1264.550, 2417.444 1250.600, 2424.503 1238.500 C 2431.562 1226.400, 2443.931 1205.025, 2451.990 1191 C 2464.961 1168.426, 2477.581 1146.598, 2499.977 1108 C 2503.647 1101.675, 2511.965 1087.275, 2518.462 1076 C 2524.959 1064.725, 2532.185 1052.350, 2534.521 1048.500 C 2536.857 1044.650, 2541.814 1036.100, 2545.538 1029.500 C 2553.954 1014.580, 2568.957 988.841, 2570.018 987.500 C 2573.102 983.605, 2588.798 953.636, 2588.357 952.487 C 2588.053 951.696, 2586.611 950.448, 2585.152 949.714 C 2583.694 948.980, 2573.275 943.191, 2562 936.850 C 2536.267 922.378, 2505.106 906.396, 2481.086 895.349 C 2445.596 879.028, 2386.241 856.060, 2356.500 847.139 C 2347.150 844.335, 2333.650 840.230, 2326.500 838.017 C 2312.401 833.655, 2274.450 823.702, 2256 819.528 C 2224.061 812.303, 2152.430 800.567, 2125 798.064 C 2118.675 797.487, 2106.300 796.349, 2097.500 795.535 C 2078.043 793.735, 2043.825 792, 2027.796 792 C 2017.208 792, 2016.005 792.179, 2016.052 793.750 M 1359.926 985.567 C 1319.636 1011.967, 1301.009 1025.844, 1253.500 1064.852 C 1231.580 1082.849, 1180.876 1130.737, 1157.095 1155.900 C 1139.387 1174.639, 1121.019 1195.290, 1108.441 1210.603 C 1085.696 1238.295, 1081.855 1243.134, 1072.008 1256.500 C 1066.335 1264.200, 1059.334 1273.650, 1056.449 1277.500 C 1048.638 1287.924, 1022.725 1326.914, 1015.243 1339.500 C 989.578 1382.672, 983 1394.195, 983 1395.981 C 983 1398.529, 989.246 1402.578, 1018.500 1418.994 C 1030.600 1425.784, 1049.950 1437.030, 1061.500 1443.986 C 1073.050 1450.941, 1091.725 1461.835, 1103 1468.193 C 1114.275 1474.551, 1127.550 1482.110, 1132.500 1484.991 C 1137.450 1487.871, 1150.275 1495.201, 1161 1501.279 C 1171.725 1507.357, 1187.475 1516.465, 1196 1521.519 C 1204.525 1526.573, 1216.450 1533.637, 1222.500 1537.216 C 1240.664 1547.961, 1300.796 1582.762, 1327.500 1597.984 C 1353.829 1612.992, 1377.158 1626.524, 1393 1635.979 C 1434.210 1660.574, 1447.706 1668.430, 1479 1686.038 C 1488.075 1691.144, 1498.334 1697.274, 1501.798 1699.661 C 1507.806 1703.800, 1511 1705.008, 1511 1703.141 C 1511 1701.808, 1527.432 1676.534, 1534.823 1666.500 C 1559.150 1633.473, 1587.422 1601.667, 1613 1578.552 C 1640.200 1553.971, 1689.002 1517.431, 1697.763 1515.088 C 1699.268 1514.686, 1700.637 1513.644, 1700.805 1512.773 C 1700.973 1511.902, 1696.814 1504.164, 1691.563 1495.577 C 1686.312 1486.990, 1675.194 1468.160, 1666.857 1453.732 C 1640.748 1408.551, 1638.672 1404.989, 1626.523 1384.500 C 1613.053 1361.782, 1602.370 1343.328, 1586.001 1314.500 C 1579.755 1303.500, 1569.473 1285.725, 1563.152 1275 C 1556.830 1264.275, 1548.654 1250.325, 1544.982 1244 C 1524.211 1208.226, 1510.929 1185.246, 1500.475 1167 C 1487.882 1145.020, 1476.013 1124.386, 1460.784 1098 C 1455.546 1088.925, 1443.470 1068, 1433.950 1051.500 C 1424.429 1035, 1413.495 1016.100, 1409.652 1009.500 C 1405.809 1002.900, 1399.567 991.875, 1395.781 985 C 1391.995 978.125, 1388.100 971.692, 1387.125 970.703 C 1385.421 968.978, 1384.348 969.564, 1359.926 985.567 M 2612.634 974.250 C 2611.286 976.587, 2606.168 985.700, 2601.260 994.500 C 2587.972 1018.329, 2569.186 1051.073, 2556.510 1072.500 C 2542.725 1095.804, 2518.485 1138.033, 2494.230 1181 C 2488.487 1191.175, 2478.516 1208.275, 2472.074 1219 C 2465.631 1229.725, 2455.465 1247.050, 2449.482 1257.500 C 2420.781 1307.629, 2404.336 1336.154, 2393.848 1354 C 2387.545 1364.725, 2377.723 1381.825, 2372.020 1392 C 2366.318 1402.175, 2355.498 1420.850, 2347.976 1433.500 C 2340.454 1446.150, 2331.239 1461.900, 2327.499 1468.500 C 2323.758 1475.100, 2317.654 1485.675, 2313.934 1492 C 2306.693 1504.311, 2303.627 1511.004, 2304.165 1513.326 C 2304.349 1514.120, 2311.475 1519.400, 2320 1525.058 C 2351.478 1545.949, 2387.376 1575.250, 2409.513 1598.122 C 2432.095 1621.452, 2463.943 1661.628, 2481.051 1688.367 C 2486.823 1697.387, 2491.039 1703, 2492.043 1703 C 2492.938 1703, 2499.258 1699.655, 2506.085 1695.566 C 2530.466 1680.968, 2576.132 1654.410, 2585.732 1649.247 C 2591.105 1646.358, 2603.375 1639.152, 2613 1633.233 C 2622.625 1627.315, 2637.025 1618.688, 2645 1614.062 C 2652.975 1609.436, 2664.675 1602.647, 2671 1598.974 C 2677.325 1595.302, 2686.374 1590.216, 2691.109 1587.673 C 2695.844 1585.130, 2700.691 1582.251, 2701.881 1581.275 C 2703.999 1579.538, 2704.007 1579.430, 2702.273 1576.253 C 2698.827 1569.941, 2676.526 1538.235, 2631.056 1475 C 2593.162 1422.301, 2582.998 1408.373, 2562.750 1381.400 C 2560.137 1377.920, 2558 1374.770, 2558 1374.401 C 2558 1373.524, 2668.088 1375.453, 2763 1377.993 C 2783.625 1378.545, 2819.850 1379.445, 2843.500 1379.994 C 2867.150 1380.543, 2905.400 1381.444, 2928.500 1381.996 C 3013.492 1384.028, 3007.063 1383.999, 3007.697 1382.347 C 3008.767 1379.560, 2994.400 1354.165, 2971.067 1317.597 C 2950.583 1285.493, 2947.293 1280.925, 2916.622 1242 C 2881.843 1197.860, 2878.632 1194.077, 2849.576 1163 C 2832.993 1145.264, 2791.967 1104.986, 2773.625 1088.435 C 2730.583 1049.594, 2695.527 1022.228, 2643.484 986.845 C 2625.458 974.589, 2618.026 970, 2616.204 970 C 2615.588 970, 2613.982 971.913, 2612.634 974.250 M 2621.818 1405.516 C 2620.758 1406.575, 2622.015 1409.108, 2626.026 1414 C 2630.207 1419.098, 2650.530 1447.096, 2662.424 1464.143 C 2666.782 1470.389, 2675.782 1483.111, 2682.424 1492.413 C 2719.074 1543.741, 2734.254 1566.365, 2741.866 1581 C 2747.123 1591.106, 2756.068 1612.367, 2767.320 1641.500 C 2776.443 1665.119, 2795.865 1716.274, 2801.490 1731.500 C 2808.750 1751.147, 2810.931 1756, 2812.501 1756 C 2813.123 1756, 2814.635 1753.581, 2815.860 1750.623 C 2817.086 1747.666, 2820.446 1741.254, 2823.328 1736.373 C 2826.209 1731.493, 2830.974 1722.775, 2833.917 1717 C 2840.760 1703.573, 2856.181 1675.359, 2876.003 1640 C 2878.316 1635.875, 2883.911 1625.750, 2888.437 1617.500 C 2897.511 1600.961, 2901.363 1594.025, 2903.987 1589.500 C 2904.943 1587.850, 2907.886 1582.450, 2910.527 1577.500 C 2915.448 1568.274, 2915.985 1567.293, 2925.027 1551 C 2927.926 1545.775, 2932.550 1537.225, 2935.302 1532 C 2938.054 1526.775, 2942.629 1518.675, 2945.469 1514 C 2948.309 1509.325, 2953.490 1500.100, 2956.982 1493.500 C 2960.474 1486.900, 2964.085 1480.150, 2965.005 1478.500 C 2968.043 1473.055, 2985.287 1441.711, 2991.688 1430 C 2995.145 1423.675, 2997.980 1417.713, 2997.987 1416.750 C 2997.998 1415.271, 2997.032 1414.997, 2991.750 1414.978 C 2988.313 1414.966, 2976.275 1414.524, 2965 1413.996 C 2953.725 1413.469, 2907.150 1412.139, 2861.500 1411.041 C 2815.850 1409.943, 2761.850 1408.595, 2741.500 1408.046 C 2721.150 1407.496, 2689.425 1406.801, 2671 1406.501 C 2652.575 1406.202, 2634.124 1405.704, 2629.999 1405.396 C 2625.873 1405.088, 2622.192 1405.142, 2621.818 1405.516 M 967.214 1426.250 C 965.624 1428.179, 951.615 1457.666, 943.816 1475.500 C 911.609 1549.145, 890.939 1609.686, 875.431 1675.794 C 857.137 1753.777, 849.990 1800.544, 843.995 1881.500 C 842.739 1898.462, 841 1949.477, 841 1969.370 L 841 1985.003 1133.750 1984.752 L 1426.500 1984.500 1427.234 1976 C 1427.638 1971.325, 1428.866 1956.700, 1429.963 1943.500 C 1432.149 1917.203, 1434.720 1898.665, 1438.631 1881 C 1442.133 1865.186, 1449.325 1838.838, 1453.917 1825.009 C 1462.147 1800.218, 1479.317 1760.037, 1489.179 1742.489 C 1494.758 1732.563, 1495.181 1731.395, 1493.659 1730.132 C 1492.063 1728.807, 1432.949 1693.357, 1413 1681.761 C 1396.757 1672.319, 1375.396 1659.981, 1348.500 1644.505 C 1339.700 1639.442, 1326.425 1631.705, 1319 1627.313 C 1293.884 1612.457, 1274.503 1601.289, 1268.989 1598.495 C 1265.970 1596.966, 1256.525 1591.584, 1248 1586.536 C 1229.788 1575.752, 1234.910 1578.715, 1183.756 1549.374 C 1161.347 1536.521, 1138.847 1523.704, 1133.756 1520.893 C 1128.665 1518.082, 1115.725 1510.592, 1105 1504.249 C 1094.275 1497.906, 1081.225 1490.221, 1076 1487.172 C 1070.775 1484.123, 1060.333 1477.999, 1052.795 1473.564 C 1045.258 1469.129, 1032.208 1461.497, 1023.795 1456.604 C 1015.383 1451.711, 999.921 1442.599, 989.436 1436.354 C 978.950 1430.109, 969.893 1425, 969.308 1425 C 968.723 1425, 967.781 1425.563, 967.214 1426.250 M 3028.387 1427.750 C 3027.551 1429.263, 3024.063 1435.675, 3020.636 1442 C 3006.714 1467.695, 2998.871 1482.020, 2981.488 1513.500 C 2971.465 1531.650, 2959.092 1554.375, 2953.992 1564 C 2948.892 1573.625, 2944.384 1581.950, 2943.975 1582.500 C 2943.566 1583.050, 2936.379 1596.100, 2928.003 1611.500 C 2919.627 1626.900, 2911.086 1642.425, 2909.023 1646 C 2906.960 1649.575, 2900.416 1661.500, 2894.480 1672.500 C 2888.544 1683.500, 2880.447 1698.350, 2876.485 1705.500 C 2854.627 1744.952, 2838.997 1773.879, 2819.752 1810.500 C 2807.077 1834.618, 2807.205 1834.415, 2805.531 1833.026 C 2804.797 1832.417, 2803.890 1830.699, 2803.517 1829.209 C 2803.143 1827.719, 2793.234 1800.850, 2781.497 1769.500 C 2769.760 1738.150, 2756.778 1703.275, 2752.648 1692 C 2744.278 1669.149, 2725.228 1619.564, 2722.115 1612.527 C 2721.008 1610.024, 2719.416 1607.713, 2718.578 1607.392 C 2717.171 1606.852, 2699.658 1616.693, 2669.500 1634.971 C 2663.450 1638.638, 2649.275 1646.963, 2638 1653.471 C 2614.128 1667.250, 2587.704 1682.701, 2527.649 1718 C 2516.888 1724.325, 2508.065 1730.113, 2508.042 1730.861 C 2508.019 1731.610, 2512.230 1740.835, 2517.401 1751.361 C 2540.345 1798.072, 2559.484 1856.709, 2566.983 1903.269 C 2569.710 1920.193, 2573.998 1959.546, 2574.009 1967.733 C 2574.013 1971.455, 2574.301 1976.862, 2574.648 1979.750 L 2575.279 1985 2867.983 1985 L 3160.687 1985 3160.309 1957.250 C 3158.561 1828.586, 3144.723 1736.695, 3107.867 1609 C 3093.597 1559.557, 3072.285 1505.236, 3045.938 1451.149 C 3032.545 1423.655, 3031.454 1422.200, 3028.387 1427.750 M 842.663 2016.435 C 842.039 2018.061, 843.463 2044.368, 844.994 2059.500 C 845.550 2065, 846.675 2077.150, 847.494 2086.500 C 852.980 2149.148, 871.293 2238.181, 892.127 2303.500 C 895.460 2313.950, 899.107 2325.425, 900.231 2329 C 907.620 2352.496, 929.581 2408.819, 941.756 2435.500 C 952.550 2459.155, 975.012 2504.703, 982.441 2518 C 984.746 2522.125, 989.977 2531.691, 994.066 2539.257 C 998.197 2546.902, 1002.288 2553.267, 1003.273 2553.582 C 1004.436 2553.954, 1012.181 2549.866, 1025.773 2541.706 C 1071.575 2514.208, 1114.501 2488.936, 1150.500 2468.273 C 1191.839 2444.546, 1227.477 2423.897, 1241 2415.839 C 1247.875 2411.742, 1259.350 2405.064, 1266.500 2400.999 C 1273.650 2396.934, 1288.050 2388.677, 1298.500 2382.649 C 1308.950 2376.621, 1326.275 2366.636, 1337 2360.460 C 1347.725 2354.284, 1363.250 2345.300, 1371.500 2340.496 C 1379.750 2335.693, 1401.649 2323.079, 1420.166 2312.465 C 1463.300 2287.740, 1495.001 2268.964, 1494.996 2268.144 C 1494.994 2267.790, 1494.030 2265.925, 1492.854 2264 C 1491.678 2262.075, 1487.219 2253.525, 1482.945 2245 C 1453.074 2185.413, 1433.995 2116.234, 1429.026 2049.500 C 1428.411 2041.250, 1427.592 2030.225, 1427.204 2025 L 1426.500 2015.500 1134.858 2015.248 C 881.925 2015.030, 843.142 2015.188, 842.663 2016.435 M 2574.599 2018.248 C 2574.328 2020.037, 2573.850 2027.564, 2573.538 2034.976 C 2570.740 2101.320, 2548.910 2185.250, 2518.807 2245.407 C 2515.478 2252.058, 2511.940 2258.652, 2510.944 2260.061 C 2507.825 2264.472, 2507.559 2267.511, 2510.086 2269.866 C 2512.662 2272.266, 2527.603 2281.267, 2553.500 2296.021 C 2563.400 2301.662, 2578.700 2310.645, 2587.500 2315.985 C 2605.544 2326.933, 2623.379 2337.306, 2642.500 2347.974 C 2658.665 2356.993, 2698.971 2380.171, 2713 2388.514 C 2731.307 2399.402, 2767.644 2420.475, 2829 2455.785 C 2838.075 2461.007, 2849.550 2467.620, 2854.500 2470.480 C 2859.450 2473.339, 2866.200 2477.180, 2869.500 2479.015 C 2872.800 2480.850, 2888.100 2489.741, 2903.500 2498.773 C 2918.900 2507.805, 2937.350 2518.605, 2944.500 2522.773 C 2951.650 2526.941, 2962.225 2533.125, 2968 2536.515 C 2989.131 2548.921, 2994.954 2551.999, 2997.203 2551.951 C 2998.972 2551.913, 3000.683 2550.018, 3004.649 2543.701 C 3018.766 2521.216, 3051.542 2456.502, 3066.421 2421.736 C 3083.843 2381.029, 3104.063 2324.621, 3115.077 2286 C 3131.001 2230.160, 3148.517 2145.867, 3152.481 2106 C 3152.836 2102.425, 3153.771 2094.325, 3154.558 2088 C 3156.544 2072.033, 3158.949 2040.763, 3159.249 2027 L 3159.500 2015.500 2867.296 2015.248 L 2575.091 2014.997 2574.599 2018.248 M 2273.794 2171.750 C 2272.959 2172.713, 2270.583 2176.200, 2268.513 2179.500 C 2262.192 2189.575, 2245.667 2211.022, 2237.361 2219.931 C 2222.671 2235.686, 2198.524 2254.634, 2183.310 2262.343 C 2180.467 2263.783, 2177.871 2265.400, 2177.539 2265.936 C 2176.796 2267.140, 2185.258 2284.149, 2192.976 2296.962 C 2202.124 2312.151, 2212.798 2330.854, 2225.530 2354 C 2242.475 2384.807, 2260.841 2417.379, 2287.337 2463.611 C 2295.497 2477.850, 2307.806 2499.400, 2314.689 2511.500 C 2326.230 2531.787, 2339.291 2554.565, 2375.321 2617.244 C 2382.828 2630.302, 2391.255 2644.671, 2394.048 2649.174 C 2396.841 2653.677, 2403.883 2665.718, 2409.696 2675.931 C 2415.510 2686.144, 2422.862 2699, 2426.035 2704.500 C 2429.207 2710, 2440.010 2728.900, 2450.041 2746.500 C 2460.071 2764.100, 2470.865 2782.775, 2474.026 2788 C 2485.364 2806.741, 2508.741 2846.966, 2514.997 2858.500 C 2525.680 2878.196, 2561.548 2940.178, 2572.813 2958.409 C 2581.227 2972.027, 2580.741 2971.758, 2588.234 2966.929 C 2591.680 2964.708, 2600.350 2959.253, 2607.500 2954.808 C 2623.439 2944.899, 2660.408 2920.291, 2672.152 2911.775 C 2679.943 2906.124, 2685.071 2902.231, 2711.002 2882.274 C 2731.881 2866.205, 2762.458 2839.661, 2792.415 2811.599 C 2814.734 2790.691, 2851.327 2752.787, 2873.637 2727.466 C 2885.090 2714.468, 2921.613 2668.119, 2933.681 2651.270 C 2954.746 2621.859, 2981 2582.098, 2981 2579.607 C 2981 2577.658, 2977.913 2575.581, 2963 2567.497 C 2950.184 2560.549, 2918.292 2542.364, 2916.500 2540.982 C 2915.354 2540.098, 2906.373 2534.909, 2849.500 2502.275 C 2826.950 2489.335, 2807.375 2477.973, 2806 2477.026 C 2804.625 2476.079, 2799.450 2473.115, 2794.500 2470.438 C 2789.550 2467.762, 2779.327 2461.956, 2771.783 2457.536 C 2764.238 2453.116, 2753.888 2447.084, 2748.783 2444.132 C 2743.677 2441.180, 2727.575 2431.766, 2713 2423.211 C 2698.425 2414.657, 2682 2405.094, 2676.500 2401.960 C 2634.782 2378.186, 2608.765 2363.189, 2589 2351.522 C 2582.675 2347.788, 2571.650 2341.349, 2564.500 2337.213 C 2528.729 2316.520, 2512.784 2307.345, 2505.500 2303.264 C 2495.858 2297.862, 2476.201 2286.447, 2458.500 2275.972 C 2451.350 2271.741, 2442.350 2266.559, 2438.500 2264.456 C 2432.381 2261.113, 2419.606 2253.699, 2389.500 2236.018 C 2385.100 2233.434, 2374.075 2226.912, 2365 2221.524 C 2355.925 2216.136, 2341.300 2207.573, 2332.500 2202.493 C 2323.700 2197.414, 2307.781 2188.026, 2297.124 2181.629 C 2286.467 2175.233, 2277.199 2170, 2276.529 2170 C 2275.859 2170, 2274.628 2170.787, 2273.794 2171.750 M 1502.500 2298.954 C 1498.280 2301.898, 1494.481 2304.105, 1449 2330.032 C 1433.325 2338.967, 1414.927 2349.649, 1408.115 2353.769 C 1401.304 2357.890, 1393.204 2362.699, 1390.115 2364.458 C 1387.027 2366.216, 1375.950 2372.618, 1365.500 2378.684 C 1355.050 2384.750, 1337.275 2395.023, 1326 2401.512 C 1290.948 2421.686, 1287.972 2423.413, 1270 2434.012 C 1253.815 2443.557, 1243.702 2449.409, 1216 2465.257 C 1210.225 2468.561, 1200.325 2474.283, 1194 2477.974 C 1187.675 2481.664, 1175.975 2488.419, 1168 2492.984 C 1160.025 2497.549, 1146.525 2505.331, 1138 2510.278 C 1129.475 2515.224, 1118.450 2521.621, 1113.500 2524.492 C 1108.550 2527.363, 1092.800 2536.463, 1078.500 2544.714 C 1024.313 2575.978, 1021.497 2577.706, 1021.554 2579.660 C 1021.618 2581.901, 1065.370 2647.262, 1078.251 2664.361 C 1095.171 2686.820, 1125.616 2724.363, 1141.618 2742.500 C 1160.347 2763.727, 1207.822 2811.614, 1227 2828.621 C 1266.155 2863.344, 1293.576 2885.545, 1325.497 2908.367 C 1336.312 2916.099, 1397.996 2957.183, 1412.028 2966 C 1423.312 2973.091, 1422.126 2973.432, 1428.657 2961.206 C 1437.413 2944.815, 1460.883 2903.469, 1478.161 2874 C 1486.706 2859.425, 1502.147 2832.650, 1512.476 2814.500 C 1537.031 2771.350, 1576.949 2701.776, 1583.335 2691 C 1586.106 2686.325, 1596.105 2669, 1605.555 2652.500 C 1623.442 2621.272, 1626.865 2615.415, 1643.606 2587.407 C 1649.164 2578.108, 1659.931 2559.700, 1667.534 2546.500 C 1675.136 2533.300, 1685.776 2515.383, 1691.178 2506.685 C 1696.580 2497.986, 1701 2490.237, 1701 2489.465 C 1701 2488.693, 1697.513 2485.716, 1693.250 2482.849 C 1654.970 2457.106, 1633.246 2440.082, 1605.824 2414.339 C 1571.234 2381.866, 1533.552 2335.812, 1512.775 2300.617 C 1509.605 2295.248, 1508.148 2295.012, 1502.500 2298.954 M 1727.241 2504.250 C 1726.689 2504.938, 1724.994 2507.975, 1723.476 2511 C 1720.257 2517.410, 1695.793 2559.758, 1659.063 2622.500 C 1652.623 2633.500, 1644.865 2647, 1641.821 2652.500 C 1638.778 2658, 1630.978 2671.500, 1624.486 2682.500 C 1611.783 2704.028, 1595.356 2732.334, 1582.993 2754 C 1569.648 2777.388, 1563.107 2788.703, 1545.993 2818 C 1536.836 2833.675, 1526.033 2852.350, 1521.986 2859.500 C 1491.305 2913.703, 1452.584 2980.676, 1450.901 2982.450 C 1449.562 2983.862, 1449.811 2987.598, 1451.329 2988.858 C 1454.312 2991.334, 1516.927 3022.525, 1536 3031.037 C 1589.494 3054.909, 1620.442 3066.335, 1692.500 3088.815 C 1716.800 3096.396, 1761.481 3107.168, 1792.500 3112.924 C 1829.784 3119.842, 1843.950 3121.928, 1888 3126.987 C 1905.206 3128.964, 1983.561 3133.772, 1984.428 3132.905 C 1985.214 3132.119, 1985.425 2574.497, 1984.640 2573.226 C 1984.163 2572.455, 1981.391 2572, 1977.168 2572 C 1943.164 2572, 1877.878 2561.195, 1837.519 2548.888 C 1802.335 2538.159, 1745.152 2514.290, 1733.317 2505.393 C 1729.700 2502.674, 1728.663 2502.479, 1727.241 2504.250 M 2258.500 2511.695 C 2227.067 2527.632, 2193.227 2540.874, 2161.500 2549.652 C 2113.513 2562.929, 2081.323 2568.422, 2034.500 2571.323 L 2015.500 2572.500 2015.244 2851.550 C 2015.031 3083.433, 2015.214 3130.910, 2016.327 3132.432 C 2017.618 3134.199, 2018.476 3134.205, 2040.583 3132.612 C 2053.187 3131.704, 2070.979 3130.538, 2080.120 3130.022 C 2115.017 3128.053, 2175.121 3120.231, 2215 3112.469 C 2235.617 3108.456, 2298.051 3093.463, 2304.601 3090.952 C 2306.195 3090.341, 2316.050 3087.162, 2326.500 3083.887 C 2391.203 3063.612, 2449.368 3040.348, 2506.500 3011.893 C 2541.211 2994.605, 2550.375 2989.341, 2550.792 2986.451 C 2551.091 2984.374, 2548.843 2980.040, 2535.776 2957.500 C 2531.631 2950.350, 2523.523 2936.175, 2517.759 2926 C 2511.996 2915.825, 2504.237 2902.325, 2500.519 2896 C 2492.322 2882.058, 2480.451 2861.514, 2459.489 2825 C 2450.806 2809.875, 2441.810 2794.350, 2439.499 2790.500 C 2434.978 2782.970, 2407.378 2735.116, 2380.959 2689 C 2364.858 2660.896, 2356.978 2647.329, 2333.330 2607 C 2326.719 2595.725, 2314.878 2575.025, 2307.017 2561 C 2281.505 2515.481, 2274.649 2504.584, 2271.816 2505.052 C 2271.642 2505.081, 2265.650 2508.070, 2258.500 2511.695" stroke="none" fill="#040609" fill-rule="evenodd"/></svg>